<?xml version="1.0" encoding="UTF-8" standalone="no"?>
<!DOCTYPE svg PUBLIC "-//W3C//DTD SVG 1.1//EN"
 "http://www.w3.org/Graphics/SVG/1.1/DTD/svg11.dtd">
<!-- Generated by graphviz version 2.44.1 (20200629.0846)
 -->
<!-- Title: dependencies Pages: 1 -->
<svg width="1929pt" height="211pt"
 viewBox="0.00 0.00 1929.00 211.00" xmlns="http://www.w3.org/2000/svg" xmlns:xlink="http://www.w3.org/1999/xlink">
<g id="graph0" class="graph" transform="scale(1 1) rotate(0) translate(4 207)">
<title>dependencies</title>
<polygon fill="white" stroke="transparent" points="-4,4 -4,-207 1925,-207 1925,4 -4,4"/>
<text text-anchor="start" x="939.51" y="-42.4" font-family="sans-serif" font-weight="bold" font-size="14.00">Legend</text>
<polygon fill="#ffffb3" stroke="transparent" points="726.5,-10 726.5,-30 746.5,-30 746.5,-10 726.5,-10"/>
<text text-anchor="start" x="750.13" y="-15.4" font-family="sans-serif" font-size="14.00"> &#160;Declarations</text>
<polygon fill="#8dd3c7" stroke="transparent" points="839.5,-10 839.5,-30 859.5,-30 859.5,-10 839.5,-10"/>
<text text-anchor="start" x="863.23" y="-15.4" font-family="sans-serif" font-size="14.00"> &#160;Module</text>
<polygon fill="#80b1d3" stroke="transparent" points="925.5,-10 925.5,-30 945.5,-30 945.5,-10 925.5,-10"/>
<text text-anchor="start" x="949.28" y="-15.4" font-family="sans-serif" font-size="14.00"> &#160;Bootstrap</text>
<polygon fill="#fdb462" stroke="transparent" points="1022.5,-10 1022.5,-30 1042.5,-30 1042.5,-10 1022.5,-10"/>
<text text-anchor="start" x="1046.17" y="-15.4" font-family="sans-serif" font-size="14.00"> &#160;Providers</text>
<polygon fill="#fb8072" stroke="transparent" points="1118.5,-10 1118.5,-30 1138.5,-30 1138.5,-10 1118.5,-10"/>
<text text-anchor="start" x="1142.23" y="-15.4" font-family="sans-serif" font-size="14.00"> &#160;Exports</text>
<g id="clust1" class="cluster">
<title>cluster_MaterialModule</title>
<polygon fill="none" stroke="black" stroke-dasharray="1,5" points="8,-70 8,-195 1913,-195 1913,-70 8,-70"/>
</g>
<g id="clust4" class="cluster">
<title>cluster_MaterialModule_exports</title>
<polygon fill="none" stroke="black" points="16,-135 16,-187 1905,-187 1905,-135 16,-135"/>
</g>
<!-- MatButtonModule  -->
<g id="node1" class="node">
<title>MatButtonModule </title>
<polygon fill="#fb8072" stroke="black" points="1896.72,-179 1773.28,-179 1773.28,-143 1896.72,-143 1896.72,-179"/>
<text text-anchor="middle" x="1835" y="-156.8" font-family="Times,serif" font-size="14.00">MatButtonModule </text>
</g>
<!-- MatTabsModule  -->
<g id="node2" class="node">
<title>MatTabsModule </title>
<polygon fill="#fb8072" stroke="black" points="1755.31,-179 1642.69,-179 1642.69,-143 1755.31,-143 1755.31,-179"/>
<text text-anchor="middle" x="1699" y="-156.8" font-family="Times,serif" font-size="14.00">MatTabsModule </text>
</g>
<!-- MatCardModule  -->
<g id="node3" class="node">
<title>MatCardModule </title>
<polygon fill="#fb8072" stroke="black" points="1624.31,-179 1511.69,-179 1511.69,-143 1624.31,-143 1624.31,-179"/>
<text text-anchor="middle" x="1568" y="-156.8" font-family="Times,serif" font-size="14.00">MatCardModule </text>
</g>
<!-- MatToolbarModule  -->
<g id="node4" class="node">
<title>MatToolbarModule </title>
<polygon fill="#fb8072" stroke="black" points="1493.92,-179 1364.08,-179 1364.08,-143 1493.92,-143 1493.92,-179"/>
<text text-anchor="middle" x="1429" y="-156.8" font-family="Times,serif" font-size="14.00">MatToolbarModule </text>
</g>
<!-- MatIconModule  -->
<g id="node5" class="node">
<title>MatIconModule </title>
<polygon fill="#fb8072" stroke="black" points="1346.48,-179 1235.52,-179 1235.52,-143 1346.48,-143 1346.48,-179"/>
<text text-anchor="middle" x="1291" y="-156.8" font-family="Times,serif" font-size="14.00">MatIconModule </text>
</g>
<!-- MatGridListModule  -->
<g id="node6" class="node">
<title>MatGridListModule </title>
<polygon fill="#fb8072" stroke="black" points="1217.54,-179 1084.46,-179 1084.46,-143 1217.54,-143 1217.54,-179"/>
<text text-anchor="middle" x="1151" y="-156.8" font-family="Times,serif" font-size="14.00">MatGridListModule </text>
</g>
<!-- MatSlideToggleModule  -->
<g id="node7" class="node">
<title>MatSlideToggleModule </title>
<polygon fill="#fb8072" stroke="black" points="1066.04,-179 911.96,-179 911.96,-143 1066.04,-143 1066.04,-179"/>
<text text-anchor="middle" x="989" y="-156.8" font-family="Times,serif" font-size="14.00">MatSlideToggleModule </text>
</g>
<!-- MatSliderModule  -->
<g id="node8" class="node">
<title>MatSliderModule </title>
<polygon fill="#fb8072" stroke="black" points="893.54,-179 774.46,-179 774.46,-143 893.54,-143 893.54,-179"/>
<text text-anchor="middle" x="834" y="-156.8" font-family="Times,serif" font-size="14.00">MatSliderModule </text>
</g>
<!-- MatDividerModule  -->
<g id="node9" class="node">
<title>MatDividerModule </title>
<polygon fill="#fb8072" stroke="black" points="756.36,-179 627.64,-179 627.64,-143 756.36,-143 756.36,-179"/>
<text text-anchor="middle" x="692" y="-156.8" font-family="Times,serif" font-size="14.00">MatDividerModule </text>
</g>
<!-- FlexLayoutModule  -->
<g id="node10" class="node">
<title>FlexLayoutModule </title>
<polygon fill="#fb8072" stroke="black" points="609.6,-179 482.4,-179 482.4,-143 609.6,-143 609.6,-179"/>
<text text-anchor="middle" x="546" y="-156.8" font-family="Times,serif" font-size="14.00">FlexLayoutModule </text>
</g>
<!-- MatInputModule  -->
<g id="node11" class="node">
<title>MatInputModule </title>
<polygon fill="#fb8072" stroke="black" points="464.65,-179 349.35,-179 349.35,-143 464.65,-143 464.65,-179"/>
<text text-anchor="middle" x="407" y="-156.8" font-family="Times,serif" font-size="14.00">MatInputModule </text>
</g>
<!-- MatFormFieldModule  -->
<g id="node12" class="node">
<title>MatFormFieldModule </title>
<polygon fill="#fb8072" stroke="black" points="331.21,-179 186.79,-179 186.79,-143 331.21,-143 331.21,-179"/>
<text text-anchor="middle" x="259" y="-156.8" font-family="Times,serif" font-size="14.00">MatFormFieldModule </text>
</g>
<!-- MatExpansionModule  -->
<g id="node13" class="node">
<title>MatExpansionModule </title>
<polygon fill="#fb8072" stroke="black" points="168.2,-179 23.8,-179 23.8,-143 168.2,-143 168.2,-179"/>
<text text-anchor="middle" x="96" y="-156.8" font-family="Times,serif" font-size="14.00">MatExpansionModule </text>
</g>
<!-- MaterialModule -->
<g id="node14" class="node">
<title>MaterialModule</title>
<polygon fill="#8dd3c7" stroke="black" points="1042.47,-114 1039.47,-118 1018.47,-118 1015.47,-114 935.53,-114 935.53,-78 1042.47,-78 1042.47,-114"/>
<text text-anchor="middle" x="989" y="-91.8" font-family="Times,serif" font-size="14.00">MaterialModule</text>
</g>
<!-- MaterialModule&#45;&gt;MatButtonModule  -->
<g id="edge1" class="edge">
<title>MaterialModule&#45;&gt;MatButtonModule </title>
<path fill="none" stroke="black" stroke-dasharray="5,2" d="M1042.56,-84C1228.53,-84 1835,-84 1835,-84 1835,-84 1835,-132.75 1835,-132.75"/>
<polygon fill="black" stroke="black" points="1831.5,-132.75 1835,-142.75 1838.5,-132.75 1831.5,-132.75"/>
</g>
<!-- MaterialModule&#45;&gt;MatTabsModule  -->
<g id="edge2" class="edge">
<title>MaterialModule&#45;&gt;MatTabsModule </title>
<path fill="none" stroke="black" stroke-dasharray="5,2" d="M1042.66,-89C1208.06,-89 1699,-89 1699,-89 1699,-89 1699,-132.83 1699,-132.83"/>
<polygon fill="black" stroke="black" points="1695.5,-132.83 1699,-142.83 1702.5,-132.83 1695.5,-132.83"/>
</g>
<!-- MaterialModule&#45;&gt;MatCardModule  -->
<g id="edge3" class="edge">
<title>MaterialModule&#45;&gt;MatCardModule </title>
<path fill="none" stroke="black" stroke-dasharray="5,2" d="M1042.69,-94C1186.23,-94 1568,-94 1568,-94 1568,-94 1568,-132.69 1568,-132.69"/>
<polygon fill="black" stroke="black" points="1564.5,-132.69 1568,-142.69 1571.5,-132.69 1564.5,-132.69"/>
</g>
<!-- MaterialModule&#45;&gt;MatToolbarModule  -->
<g id="edge4" class="edge">
<title>MaterialModule&#45;&gt;MatToolbarModule </title>
<path fill="none" stroke="black" stroke-dasharray="5,2" d="M1042.51,-99C1159.77,-99 1429,-99 1429,-99 1429,-99 1429,-132.73 1429,-132.73"/>
<polygon fill="black" stroke="black" points="1425.5,-132.73 1429,-142.73 1432.5,-132.73 1425.5,-132.73"/>
</g>
<!-- MaterialModule&#45;&gt;MatIconModule  -->
<g id="edge5" class="edge">
<title>MaterialModule&#45;&gt;MatIconModule </title>
<path fill="none" stroke="black" stroke-dasharray="5,2" d="M1042.64,-104C1129.43,-104 1291,-104 1291,-104 1291,-104 1291,-132.96 1291,-132.96"/>
<polygon fill="black" stroke="black" points="1287.5,-132.96 1291,-142.96 1294.5,-132.96 1287.5,-132.96"/>
</g>
<!-- MaterialModule&#45;&gt;MatGridListModule  -->
<g id="edge6" class="edge">
<title>MaterialModule&#45;&gt;MatGridListModule </title>
<path fill="none" stroke="black" stroke-dasharray="5,2" d="M1042.49,-109C1089.68,-109 1151,-109 1151,-109 1151,-109 1151,-132.81 1151,-132.81"/>
<polygon fill="black" stroke="black" points="1147.5,-132.81 1151,-142.81 1154.5,-132.81 1147.5,-132.81"/>
</g>
<!-- MaterialModule&#45;&gt;MatSlideToggleModule  -->
<g id="edge7" class="edge">
<title>MaterialModule&#45;&gt;MatSlideToggleModule </title>
<path fill="none" stroke="black" stroke-dasharray="5,2" d="M989,-114.11C989,-114.11 989,-132.99 989,-132.99"/>
<polygon fill="black" stroke="black" points="985.5,-132.99 989,-142.99 992.5,-132.99 985.5,-132.99"/>
</g>
<!-- MaterialModule&#45;&gt;MatSliderModule  -->
<g id="edge8" class="edge">
<title>MaterialModule&#45;&gt;MatSliderModule </title>
<path fill="none" stroke="black" stroke-dasharray="5,2" d="M935.22,-109C890.46,-109 834,-109 834,-109 834,-109 834,-132.81 834,-132.81"/>
<polygon fill="black" stroke="black" points="830.5,-132.81 834,-142.81 837.5,-132.81 830.5,-132.81"/>
</g>
<!-- MaterialModule&#45;&gt;MatDividerModule  -->
<g id="edge9" class="edge">
<title>MaterialModule&#45;&gt;MatDividerModule </title>
<path fill="none" stroke="black" stroke-dasharray="5,2" d="M935.22,-104C849.63,-104 692,-104 692,-104 692,-104 692,-132.96 692,-132.96"/>
<polygon fill="black" stroke="black" points="688.5,-132.96 692,-142.96 695.5,-132.96 688.5,-132.96"/>
</g>
<!-- MaterialModule&#45;&gt;FlexLayoutModule  -->
<g id="edge10" class="edge">
<title>MaterialModule&#45;&gt;FlexLayoutModule </title>
<path fill="none" stroke="black" stroke-dasharray="5,2" d="M935.12,-99C817.06,-99 546,-99 546,-99 546,-99 546,-132.73 546,-132.73"/>
<polygon fill="black" stroke="black" points="542.5,-132.73 546,-142.73 549.5,-132.73 542.5,-132.73"/>
</g>
<!-- MaterialModule&#45;&gt;MatInputModule  -->
<g id="edge11" class="edge">
<title>MaterialModule&#45;&gt;MatInputModule </title>
<path fill="none" stroke="black" stroke-dasharray="5,2" d="M935.29,-94C791.21,-94 407,-94 407,-94 407,-94 407,-132.69 407,-132.69"/>
<polygon fill="black" stroke="black" points="403.5,-132.69 407,-142.69 410.5,-132.69 403.5,-132.69"/>
</g>
<!-- MaterialModule&#45;&gt;MatFormFieldModule  -->
<g id="edge12" class="edge">
<title>MaterialModule&#45;&gt;MatFormFieldModule </title>
<path fill="none" stroke="black" stroke-dasharray="5,2" d="M935.32,-89C766.74,-89 259,-89 259,-89 259,-89 259,-132.83 259,-132.83"/>
<polygon fill="black" stroke="black" points="255.5,-132.83 259,-142.83 262.5,-132.83 255.5,-132.83"/>
</g>
<!-- MaterialModule&#45;&gt;MatExpansionModule  -->
<g id="edge13" class="edge">
<title>MaterialModule&#45;&gt;MatExpansionModule </title>
<path fill="none" stroke="black" stroke-dasharray="5,2" d="M935.48,-84C742.82,-84 96,-84 96,-84 96,-84 96,-132.75 96,-132.75"/>
<polygon fill="black" stroke="black" points="92.5,-132.75 96,-142.75 99.5,-132.75 92.5,-132.75"/>
</g>
</g>
</svg>
