<?xml version="1.0" encoding="UTF-8" standalone="no"?>
<!DOCTYPE svg PUBLIC "-//W3C//DTD SVG 1.1//EN"
 "http://www.w3.org/Graphics/SVG/1.1/DTD/svg11.dtd">
<!-- Generated by graphviz version 2.40.1 (20161225.0304)
 -->
<!-- Title: dependencies Pages: 1 -->
<svg width="4898pt" height="290pt"
 viewBox="0.00 0.00 4898.00 290.00" xmlns="http://www.w3.org/2000/svg" xmlns:xlink="http://www.w3.org/1999/xlink">
<g id="graph0" class="graph" transform="scale(1 1) rotate(0) translate(4 286)">
<title>dependencies</title>
<polygon fill="#ffffff" stroke="transparent" points="-4,4 -4,-286 4894,-286 4894,4 -4,4"/>
<text text-anchor="start" x="2424.0091" y="-42.4" font-family="sans-serif" font-weight="bold" font-size="14.00" fill="#000000">Legend</text>
<polygon fill="#ffffb3" stroke="transparent" points="2211,-10 2211,-30 2231,-30 2231,-10 2211,-10"/>
<text text-anchor="start" x="2234.629" y="-15.4" font-family="sans-serif" font-size="14.00" fill="#000000"> &#160;Declarations</text>
<polygon fill="#8dd3c7" stroke="transparent" points="2324,-10 2324,-30 2344,-30 2344,-10 2324,-10"/>
<text text-anchor="start" x="2347.7251" y="-15.4" font-family="sans-serif" font-size="14.00" fill="#000000"> &#160;Module</text>
<polygon fill="#80b1d3" stroke="transparent" points="2410,-10 2410,-30 2430,-30 2430,-10 2410,-10"/>
<text text-anchor="start" x="2433.7812" y="-15.4" font-family="sans-serif" font-size="14.00" fill="#000000"> &#160;Bootstrap</text>
<polygon fill="#fdb462" stroke="transparent" points="2507,-10 2507,-30 2527,-30 2527,-10 2507,-10"/>
<text text-anchor="start" x="2530.6732" y="-15.4" font-family="sans-serif" font-size="14.00" fill="#000000"> &#160;Providers</text>
<polygon fill="#fb8072" stroke="transparent" points="2603,-10 2603,-30 2623,-30 2623,-10 2603,-10"/>
<text text-anchor="start" x="2626.7258" y="-15.4" font-family="sans-serif" font-size="14.00" fill="#000000"> &#160;Exports</text>
<g id="clust1" class="cluster">
<title>cluster_AppModule</title>
<polygon fill="none" stroke="#000000" stroke-dasharray="1,5" points="8,-70 8,-274 2824,-274 2824,-70 8,-70"/>
</g>
<g id="clust2" class="cluster">
<title>cluster_AppModule_declarations</title>
<polygon fill="none" stroke="#000000" points="663,-78 663,-130 1677,-130 1677,-78 663,-78"/>
</g>
<g id="clust10" class="cluster">
<title>cluster_AppModule_imports</title>
<polygon fill="none" stroke="#000000" points="1685,-78 1685,-130 2816,-130 2816,-78 1685,-78"/>
</g>
<g id="clust12" class="cluster">
<title>cluster_AppModule_bootstrap</title>
<polygon fill="none" stroke="#000000" points="1426,-214 1426,-266 1550,-266 1550,-214 1426,-214"/>
</g>
<g id="clust13" class="cluster">
<title>cluster_AppModule_providers</title>
<polygon fill="none" stroke="#000000" points="16,-78 16,-130 655,-130 655,-78 16,-78"/>
</g>
<g id="clust14" class="cluster">
<title>cluster_MaterialModule</title>
<polygon fill="none" stroke="#000000" stroke-dasharray="1,5" points="2832,-138 2832,-206 4882,-206 4882,-138 2832,-138"/>
</g>
<g id="clust17" class="cluster">
<title>cluster_MaterialModule_exports</title>
<polygon fill="none" stroke="#000000" points="2840,-146 2840,-198 4874,-198 4874,-146 2840,-146"/>
</g>
<!-- AppComponent -->
<g id="node1" class="node">
<title>AppComponent</title>
<polygon fill="#ffffb3" stroke="#000000" points="1668.9399,-122 1563.0601,-122 1563.0601,-86 1668.9399,-86 1668.9399,-122"/>
<text text-anchor="middle" x="1616" y="-99.8" font-family="Times,serif" font-size="14.00" fill="#000000">AppComponent</text>
</g>
<!-- AppModule -->
<g id="node8" class="node">
<title>AppModule</title>
<polygon fill="#8dd3c7" stroke="#000000" points="1529.6571,-190 1526.6571,-194 1505.6571,-194 1502.6571,-190 1446.3429,-190 1446.3429,-154 1529.6571,-154 1529.6571,-190"/>
<text text-anchor="middle" x="1488" y="-167.8" font-family="Times,serif" font-size="14.00" fill="#000000">AppModule</text>
</g>
<!-- AppComponent&#45;&gt;AppModule -->
<g id="edge1" class="edge">
<title>AppComponent&#45;&gt;AppModule</title>
<path fill="none" stroke="#000000" d="M1616,-122.0352C1616,-138.7344 1616,-161 1616,-161 1616,-161 1539.912,-161 1539.912,-161"/>
<polygon fill="#000000" stroke="#000000" points="1539.912,-157.5001 1529.912,-161 1539.912,-164.5001 1539.912,-157.5001"/>
</g>
<!-- LoginComponent -->
<g id="node2" class="node">
<title>LoginComponent</title>
<polygon fill="#ffffb3" stroke="#000000" points="1545.2758,-122 1430.7242,-122 1430.7242,-86 1545.2758,-86 1545.2758,-122"/>
<text text-anchor="middle" x="1488" y="-99.8" font-family="Times,serif" font-size="14.00" fill="#000000">LoginComponent</text>
</g>
<!-- LoginComponent&#45;&gt;AppModule -->
<g id="edge2" class="edge">
<title>LoginComponent&#45;&gt;AppModule</title>
<path fill="none" stroke="#000000" d="M1488,-122.2228C1488,-122.2228 1488,-143.7269 1488,-143.7269"/>
<polygon fill="#000000" stroke="#000000" points="1484.5001,-143.7269 1488,-153.7269 1491.5001,-143.727 1484.5001,-143.7269"/>
</g>
<!-- ControlPanelComponent -->
<g id="node3" class="node">
<title>ControlPanelComponent</title>
<polygon fill="#ffffb3" stroke="#000000" points="1412.7133,-122 1257.2867,-122 1257.2867,-86 1412.7133,-86 1412.7133,-122"/>
<text text-anchor="middle" x="1335" y="-99.8" font-family="Times,serif" font-size="14.00" fill="#000000">ControlPanelComponent</text>
</g>
<!-- ControlPanelComponent&#45;&gt;AppModule -->
<g id="edge3" class="edge">
<title>ControlPanelComponent&#45;&gt;AppModule</title>
<path fill="none" stroke="#000000" d="M1335,-122.2819C1335,-137.9478 1335,-158 1335,-158 1335,-158 1436.1921,-158 1436.1921,-158"/>
<polygon fill="#000000" stroke="#000000" points="1436.1921,-161.5001 1446.1921,-158 1436.192,-154.5001 1436.1921,-161.5001"/>
</g>
<!-- AboutComponent -->
<g id="node4" class="node">
<title>AboutComponent</title>
<polygon fill="#ffffb3" stroke="#000000" points="1239.3301,-122 1122.6699,-122 1122.6699,-86 1239.3301,-86 1239.3301,-122"/>
<text text-anchor="middle" x="1181" y="-99.8" font-family="Times,serif" font-size="14.00" fill="#000000">AboutComponent</text>
</g>
<!-- AboutComponent&#45;&gt;AppModule -->
<g id="edge4" class="edge">
<title>AboutComponent&#45;&gt;AppModule</title>
<path fill="none" stroke="#000000" d="M1181,-122.0336C1181,-139.0597 1181,-162 1181,-162 1181,-162 1436.2771,-162 1436.2771,-162"/>
<polygon fill="#000000" stroke="#000000" points="1436.2771,-165.5001 1446.2771,-162 1436.2771,-158.5001 1436.2771,-165.5001"/>
</g>
<!-- PreviewComponent -->
<g id="node5" class="node">
<title>PreviewComponent</title>
<polygon fill="#ffffb3" stroke="#000000" points="1104.7022,-122 977.2978,-122 977.2978,-86 1104.7022,-86 1104.7022,-122"/>
<text text-anchor="middle" x="1041" y="-99.8" font-family="Times,serif" font-size="14.00" fill="#000000">PreviewComponent</text>
</g>
<!-- PreviewComponent&#45;&gt;AppModule -->
<g id="edge5" class="edge">
<title>PreviewComponent&#45;&gt;AppModule</title>
<path fill="none" stroke="#000000" d="M1041,-122.302C1041,-140.2699 1041,-165 1041,-165 1041,-165 1435.9473,-165 1435.9473,-165"/>
<polygon fill="#000000" stroke="#000000" points="1435.9474,-168.5001 1445.9473,-165 1435.9473,-161.5001 1435.9474,-168.5001"/>
</g>
<!-- ToggleComponent -->
<g id="node6" class="node">
<title>ToggleComponent</title>
<polygon fill="#ffffb3" stroke="#000000" points="959.4902,-122 838.5098,-122 838.5098,-86 959.4902,-86 959.4902,-122"/>
<text text-anchor="middle" x="899" y="-99.8" font-family="Times,serif" font-size="14.00" fill="#000000">ToggleComponent</text>
</g>
<!-- ToggleComponent&#45;&gt;AppModule -->
<g id="edge6" class="edge">
<title>ToggleComponent&#45;&gt;AppModule</title>
<path fill="none" stroke="#000000" d="M899,-122.1061C899,-141.3391 899,-169 899,-169 899,-169 1436.1128,-169 1436.1128,-169"/>
<polygon fill="#000000" stroke="#000000" points="1436.1128,-172.5001 1446.1128,-169 1436.1127,-165.5001 1436.1128,-172.5001"/>
</g>
<!-- RegistrationComponent -->
<g id="node7" class="node">
<title>RegistrationComponent</title>
<polygon fill="#ffffb3" stroke="#000000" points="820.766,-122 671.234,-122 671.234,-86 820.766,-86 820.766,-122"/>
<text text-anchor="middle" x="746" y="-99.8" font-family="Times,serif" font-size="14.00" fill="#000000">RegistrationComponent</text>
</g>
<!-- RegistrationComponent&#45;&gt;AppModule -->
<g id="edge7" class="edge">
<title>RegistrationComponent&#45;&gt;AppModule</title>
<path fill="none" stroke="#000000" d="M746,-122.2228C746,-142.3652 746,-172 746,-172 746,-172 1436.2493,-172 1436.2493,-172"/>
<polygon fill="#000000" stroke="#000000" points="1436.2493,-175.5001 1446.2493,-172 1436.2492,-168.5001 1436.2493,-175.5001"/>
</g>
<!-- AppComponent  -->
<g id="node17" class="node">
<title>AppComponent </title>
<polygon fill="#80b1d3" stroke="#000000" points="1542.439,-258 1433.561,-258 1433.561,-222 1542.439,-222 1542.439,-258"/>
<text text-anchor="middle" x="1488" y="-235.8" font-family="Times,serif" font-size="14.00" fill="#000000">AppComponent </text>
</g>
<!-- AppModule&#45;&gt;AppComponent  -->
<g id="edge16" class="edge">
<title>AppModule&#45;&gt;AppComponent </title>
<path fill="none" stroke="#000000" stroke-dasharray="1,5" d="M1488,-190.2228C1488,-190.2228 1488,-211.7269 1488,-211.7269"/>
<polygon fill="#000000" stroke="#000000" points="1484.5001,-211.7269 1488,-221.7269 1491.5001,-211.727 1484.5001,-211.7269"/>
</g>
<!-- BrowserModule -->
<g id="node9" class="node">
<title>BrowserModule</title>
<polygon fill="#8dd3c7" stroke="#000000" points="2683.4734,-122 2680.4734,-126 2659.4734,-126 2656.4734,-122 2576.5266,-122 2576.5266,-86 2683.4734,-86 2683.4734,-122"/>
<text text-anchor="middle" x="2630" y="-99.8" font-family="Times,serif" font-size="14.00" fill="#000000">BrowserModule</text>
</g>
<!-- BrowserModule&#45;&gt;AppModule -->
<g id="edge8" class="edge">
<title>BrowserModule&#45;&gt;AppModule</title>
<path fill="none" stroke="#000000" d="M2630,-122.1532C2630,-145.7566 2630,-184 2630,-184 2630,-184 1539.6583,-184 1539.6583,-184"/>
<polygon fill="#000000" stroke="#000000" points="1539.6583,-180.5001 1529.6583,-184 1539.6582,-187.5001 1539.6583,-180.5001"/>
</g>
<!-- BrowserAnimationsModule -->
<g id="node10" class="node">
<title>BrowserAnimationsModule</title>
<polygon fill="#8dd3c7" stroke="#000000" points="2558.3019,-122 2555.3019,-126 2534.3019,-126 2531.3019,-122 2385.6981,-122 2385.6981,-86 2558.3019,-86 2558.3019,-122"/>
<text text-anchor="middle" x="2472" y="-99.8" font-family="Times,serif" font-size="14.00" fill="#000000">BrowserAnimationsModule</text>
</g>
<!-- BrowserAnimationsModule&#45;&gt;AppModule -->
<g id="edge9" class="edge">
<title>BrowserAnimationsModule&#45;&gt;AppModule</title>
<path fill="none" stroke="#000000" d="M2472,-122.2479C2472,-145.0179 2472,-181 2472,-181 2472,-181 1539.9665,-181 1539.9665,-181"/>
<polygon fill="#000000" stroke="#000000" points="1539.9665,-177.5001 1529.9665,-181 1539.9664,-184.5001 1539.9665,-177.5001"/>
</g>
<!-- MaterialModule -->
<g id="node11" class="node">
<title>MaterialModule</title>
<polygon fill="#8dd3c7" stroke="#000000" points="2808.4706,-122 2805.4706,-126 2784.4706,-126 2781.4706,-122 2701.5294,-122 2701.5294,-86 2808.4706,-86 2808.4706,-122"/>
<text text-anchor="middle" x="2755" y="-99.8" font-family="Times,serif" font-size="14.00" fill="#000000">MaterialModule</text>
</g>
<!-- MaterialModule&#45;&gt;AppModule -->
<g id="edge10" class="edge">
<title>MaterialModule&#45;&gt;AppModule</title>
<path fill="none" stroke="#000000" d="M2737.1716,-122.0098C2737.1716,-146.4207 2737.1716,-187 2737.1716,-187 2737.1716,-187 1539.9194,-187 1539.9194,-187"/>
<polygon fill="#000000" stroke="#000000" points="1539.9194,-183.5001 1529.9194,-187 1539.9193,-190.5001 1539.9194,-183.5001"/>
</g>
<!-- MatButtonModule  -->
<g id="node22" class="node">
<title>MatButtonModule </title>
<polygon fill="#fb8072" stroke="#000000" points="4865.7177,-190 4742.2823,-190 4742.2823,-154 4865.7177,-154 4865.7177,-190"/>
<text text-anchor="middle" x="4804" y="-167.8" font-family="Times,serif" font-size="14.00" fill="#000000">MatButtonModule </text>
</g>
<!-- MaterialModule&#45;&gt;MatButtonModule  -->
<g id="edge21" class="edge">
<title>MaterialModule&#45;&gt;MatButtonModule </title>
<path fill="none" stroke="#000000" stroke-dasharray="5,2" d="M2808.4907,-89C3131.1376,-89 4804,-89 4804,-89 4804,-89 4804,-143.9902 4804,-143.9902"/>
<polygon fill="#000000" stroke="#000000" points="4800.5001,-143.9902 4804,-153.9902 4807.5001,-143.9903 4800.5001,-143.9902"/>
</g>
<!-- MatTabsModule  -->
<g id="node23" class="node">
<title>MatTabsModule </title>
<polygon fill="#fb8072" stroke="#000000" points="4724.3116,-190 4611.6884,-190 4611.6884,-154 4724.3116,-154 4724.3116,-190"/>
<text text-anchor="middle" x="4668" y="-167.8" font-family="Times,serif" font-size="14.00" fill="#000000">MatTabsModule </text>
</g>
<!-- MaterialModule&#45;&gt;MatTabsModule  -->
<g id="edge22" class="edge">
<title>MaterialModule&#45;&gt;MatTabsModule </title>
<path fill="none" stroke="#000000" stroke-dasharray="5,2" d="M2808.6649,-92C3118.8063,-92 4668,-92 4668,-92 4668,-92 4668,-143.8468 4668,-143.8468"/>
<polygon fill="#000000" stroke="#000000" points="4664.5001,-143.8467 4668,-153.8468 4671.5001,-143.8468 4664.5001,-143.8467"/>
</g>
<!-- MatCardModule  -->
<g id="node24" class="node">
<title>MatCardModule </title>
<polygon fill="#fb8072" stroke="#000000" points="4593.3116,-190 4480.6884,-190 4480.6884,-154 4593.3116,-154 4593.3116,-190"/>
<text text-anchor="middle" x="4537" y="-167.8" font-family="Times,serif" font-size="14.00" fill="#000000">MatCardModule </text>
</g>
<!-- MaterialModule&#45;&gt;MatCardModule  -->
<g id="edge23" class="edge">
<title>MaterialModule&#45;&gt;MatCardModule </title>
<path fill="none" stroke="#000000" stroke-dasharray="5,2" d="M2808.8172,-94C3106.3944,-94 4537,-94 4537,-94 4537,-94 4537,-143.9092 4537,-143.9092"/>
<polygon fill="#000000" stroke="#000000" points="4533.5001,-143.9091 4537,-153.9092 4540.5001,-143.9092 4533.5001,-143.9091"/>
</g>
<!-- MatToolbarModule  -->
<g id="node25" class="node">
<title>MatToolbarModule </title>
<polygon fill="#fb8072" stroke="#000000" points="4462.918,-190 4333.082,-190 4333.082,-154 4462.918,-154 4462.918,-190"/>
<text text-anchor="middle" x="4398" y="-167.8" font-family="Times,serif" font-size="14.00" fill="#000000">MatToolbarModule </text>
</g>
<!-- MaterialModule&#45;&gt;MatToolbarModule  -->
<g id="edge24" class="edge">
<title>MaterialModule&#45;&gt;MatToolbarModule </title>
<path fill="none" stroke="#000000" stroke-dasharray="5,2" d="M2808.7314,-97C3091.8917,-97 4398,-97 4398,-97 4398,-97 4398,-143.8446 4398,-143.8446"/>
<polygon fill="#000000" stroke="#000000" points="4394.5001,-143.8446 4398,-153.8446 4401.5001,-143.8446 4394.5001,-143.8446"/>
</g>
<!-- MatIconModule  -->
<g id="node26" class="node">
<title>MatIconModule </title>
<polygon fill="#fb8072" stroke="#000000" points="4315.4758,-190 4204.5242,-190 4204.5242,-154 4315.4758,-154 4315.4758,-190"/>
<text text-anchor="middle" x="4260" y="-167.8" font-family="Times,serif" font-size="14.00" fill="#000000">MatIconModule </text>
</g>
<!-- MaterialModule&#45;&gt;MatIconModule  -->
<g id="edge25" class="edge">
<title>MaterialModule&#45;&gt;MatIconModule </title>
<path fill="none" stroke="#000000" stroke-dasharray="5,2" d="M2808.5637,-99C3076.6634,-99 4260,-99 4260,-99 4260,-99 4260,-143.9551 4260,-143.9551"/>
<polygon fill="#000000" stroke="#000000" points="4256.5001,-143.955 4260,-153.9551 4263.5001,-143.9551 4256.5001,-143.955"/>
</g>
<!-- MatGridListModule  -->
<g id="node27" class="node">
<title>MatGridListModule </title>
<polygon fill="#fb8072" stroke="#000000" points="4186.5358,-190 4053.4642,-190 4053.4642,-154 4186.5358,-154 4186.5358,-190"/>
<text text-anchor="middle" x="4120" y="-167.8" font-family="Times,serif" font-size="14.00" fill="#000000">MatGridListModule </text>
</g>
<!-- MaterialModule&#45;&gt;MatGridListModule  -->
<g id="edge26" class="edge">
<title>MaterialModule&#45;&gt;MatGridListModule </title>
<path fill="none" stroke="#000000" stroke-dasharray="5,2" d="M2808.5096,-102C3060.8784,-102 4120,-102 4120,-102 4120,-102 4120,-143.9733 4120,-143.9733"/>
<polygon fill="#000000" stroke="#000000" points="4116.5001,-143.9732 4120,-153.9733 4123.5001,-143.9733 4116.5001,-143.9732"/>
</g>
<!-- MatSlideToggleModule  -->
<g id="node28" class="node">
<title>MatSlideToggleModule </title>
<polygon fill="#fb8072" stroke="#000000" points="4035.0358,-190 3880.9642,-190 3880.9642,-154 4035.0358,-154 4035.0358,-190"/>
<text text-anchor="middle" x="3958" y="-167.8" font-family="Times,serif" font-size="14.00" fill="#000000">MatSlideToggleModule </text>
</g>
<!-- MaterialModule&#45;&gt;MatSlideToggleModule  -->
<g id="edge27" class="edge">
<title>MaterialModule&#45;&gt;MatSlideToggleModule </title>
<path fill="none" stroke="#000000" stroke-dasharray="5,2" d="M2808.6349,-104C3042.0857,-104 3958,-104 3958,-104 3958,-104 3958,-143.7772 3958,-143.7772"/>
<polygon fill="#000000" stroke="#000000" points="3954.5001,-143.7772 3958,-153.7772 3961.5001,-143.7773 3954.5001,-143.7772"/>
</g>
<!-- MatSliderModule  -->
<g id="node29" class="node">
<title>MatSliderModule </title>
<polygon fill="#fb8072" stroke="#000000" points="3862.5386,-190 3743.4614,-190 3743.4614,-154 3862.5386,-154 3862.5386,-190"/>
<text text-anchor="middle" x="3803" y="-167.8" font-family="Times,serif" font-size="14.00" fill="#000000">MatSliderModule </text>
</g>
<!-- MaterialModule&#45;&gt;MatSliderModule  -->
<g id="edge28" class="edge">
<title>MaterialModule&#45;&gt;MatSliderModule </title>
<path fill="none" stroke="#000000" stroke-dasharray="5,2" d="M2808.7742,-107C3022.8565,-107 3803,-107 3803,-107 3803,-107 3803,-143.8939 3803,-143.8939"/>
<polygon fill="#000000" stroke="#000000" points="3799.5001,-143.8938 3803,-153.8939 3806.5001,-143.8939 3799.5001,-143.8938"/>
</g>
<!-- MatDividerModule  -->
<g id="node30" class="node">
<title>MatDividerModule </title>
<polygon fill="#fb8072" stroke="#000000" points="3725.3631,-190 3596.6369,-190 3596.6369,-154 3725.3631,-154 3725.3631,-190"/>
<text text-anchor="middle" x="3661" y="-167.8" font-family="Times,serif" font-size="14.00" fill="#000000">MatDividerModule </text>
</g>
<!-- MaterialModule&#45;&gt;MatDividerModule  -->
<g id="edge29" class="edge">
<title>MaterialModule&#45;&gt;MatDividerModule </title>
<path fill="none" stroke="#000000" stroke-dasharray="5,2" d="M2808.6261,-110C3003.2526,-110 3661,-110 3661,-110 3661,-110 3661,-143.7333 3661,-143.7333"/>
<polygon fill="#000000" stroke="#000000" points="3657.5001,-143.7333 3661,-153.7333 3664.5001,-143.7333 3657.5001,-143.7333"/>
</g>
<!-- FlexLayoutModule  -->
<g id="node31" class="node">
<title>FlexLayoutModule </title>
<polygon fill="#fb8072" stroke="#000000" points="3578.596,-190 3451.404,-190 3451.404,-154 3578.596,-154 3578.596,-190"/>
<text text-anchor="middle" x="3515" y="-167.8" font-family="Times,serif" font-size="14.00" fill="#000000">FlexLayoutModule </text>
</g>
<!-- MaterialModule&#45;&gt;FlexLayoutModule  -->
<g id="edge30" class="edge">
<title>MaterialModule&#45;&gt;FlexLayoutModule </title>
<path fill="none" stroke="#000000" stroke-dasharray="5,2" d="M2808.7445,-112C2982.0556,-112 3515,-112 3515,-112 3515,-112 3515,-143.998 3515,-143.998"/>
<polygon fill="#000000" stroke="#000000" points="3511.5001,-143.998 3515,-153.998 3518.5001,-143.9981 3511.5001,-143.998"/>
</g>
<!-- MatInputModule  -->
<g id="node32" class="node">
<title>MatInputModule </title>
<polygon fill="#fb8072" stroke="#000000" points="3433.6509,-190 3318.3491,-190 3318.3491,-154 3433.6509,-154 3433.6509,-190"/>
<text text-anchor="middle" x="3376" y="-167.8" font-family="Times,serif" font-size="14.00" fill="#000000">MatInputModule </text>
</g>
<!-- MaterialModule&#45;&gt;MatInputModule  -->
<g id="edge31" class="edge">
<title>MaterialModule&#45;&gt;MatInputModule </title>
<path fill="none" stroke="#000000" stroke-dasharray="5,2" d="M2808.4836,-115C2959.1156,-115 3376,-115 3376,-115 3376,-115 3376,-143.9648 3376,-143.9648"/>
<polygon fill="#000000" stroke="#000000" points="3372.5001,-143.9648 3376,-153.9648 3379.5001,-143.9649 3372.5001,-143.9648"/>
</g>
<!-- MatFormFieldModule  -->
<g id="node33" class="node">
<title>MatFormFieldModule </title>
<polygon fill="#fb8072" stroke="#000000" points="3300.2121,-190 3155.7879,-190 3155.7879,-154 3300.2121,-154 3300.2121,-190"/>
<text text-anchor="middle" x="3228" y="-167.8" font-family="Times,serif" font-size="14.00" fill="#000000">MatFormFieldModule </text>
</g>
<!-- MaterialModule&#45;&gt;MatFormFieldModule  -->
<g id="edge32" class="edge">
<title>MaterialModule&#45;&gt;MatFormFieldModule </title>
<path fill="none" stroke="#000000" stroke-dasharray="5,2" d="M2808.7986,-117C2932.7715,-117 3228,-117 3228,-117 3228,-117 3228,-143.9909 3228,-143.9909"/>
<polygon fill="#000000" stroke="#000000" points="3224.5001,-143.9909 3228,-153.9909 3231.5001,-143.991 3224.5001,-143.9909"/>
</g>
<!-- MatExpansionModule  -->
<g id="node34" class="node">
<title>MatExpansionModule </title>
<polygon fill="#fb8072" stroke="#000000" points="3137.2023,-190 2992.7977,-190 2992.7977,-154 3137.2023,-154 3137.2023,-190"/>
<text text-anchor="middle" x="3065" y="-167.8" font-family="Times,serif" font-size="14.00" fill="#000000">MatExpansionModule </text>
</g>
<!-- MaterialModule&#45;&gt;MatExpansionModule  -->
<g id="edge33" class="edge">
<title>MaterialModule&#45;&gt;MatExpansionModule </title>
<path fill="none" stroke="#000000" stroke-dasharray="5,2" d="M2808.644,-120C2897.37,-120 3065,-120 3065,-120 3065,-120 3065,-143.8129 3065,-143.8129"/>
<polygon fill="#000000" stroke="#000000" points="3061.5001,-143.8129 3065,-153.8129 3068.5001,-143.813 3061.5001,-143.8129"/>
</g>
<!-- MatTooltipModule  -->
<g id="node35" class="node">
<title>MatTooltipModule </title>
<polygon fill="#fb8072" stroke="#000000" points="2974.3241,-190 2847.6759,-190 2847.6759,-154 2974.3241,-154 2974.3241,-190"/>
<text text-anchor="middle" x="2911" y="-167.8" font-family="Times,serif" font-size="14.00" fill="#000000">MatTooltipModule </text>
</g>
<!-- MaterialModule&#45;&gt;MatTooltipModule  -->
<g id="edge34" class="edge">
<title>MaterialModule&#45;&gt;MatTooltipModule </title>
<path fill="none" stroke="#000000" stroke-dasharray="5,2" d="M2772.8284,-122.2819C2772.8284,-137.9478 2772.8284,-158 2772.8284,-158 2772.8284,-158 2837.5758,-158 2837.5758,-158"/>
<polygon fill="#000000" stroke="#000000" points="2837.5758,-161.5001 2847.5758,-158 2837.5757,-154.5001 2837.5758,-161.5001"/>
</g>
<!-- FormsModule -->
<g id="node12" class="node">
<title>FormsModule</title>
<polygon fill="#8dd3c7" stroke="#000000" points="2231.8288,-122 2228.8288,-126 2207.8288,-126 2204.8288,-122 2136.1712,-122 2136.1712,-86 2231.8288,-86 2231.8288,-122"/>
<text text-anchor="middle" x="2184" y="-99.8" font-family="Times,serif" font-size="14.00" fill="#000000">FormsModule</text>
</g>
<!-- FormsModule&#45;&gt;AppModule -->
<g id="edge11" class="edge">
<title>FormsModule&#45;&gt;AppModule</title>
<path fill="none" stroke="#000000" d="M2184,-122.0267C2184,-142.7672 2184,-174 2184,-174 2184,-174 1539.7117,-174 1539.7117,-174"/>
<polygon fill="#000000" stroke="#000000" points="1539.7118,-170.5001 1529.7117,-174 1539.7117,-177.5001 1539.7118,-170.5001"/>
</g>
<!-- ReactiveFormsModule -->
<g id="node13" class="node">
<title>ReactiveFormsModule</title>
<polygon fill="#8dd3c7" stroke="#000000" points="2118.3047,-122 2115.3047,-126 2094.3047,-126 2091.3047,-122 1973.6953,-122 1973.6953,-86 2118.3047,-86 2118.3047,-122"/>
<text text-anchor="middle" x="2046" y="-99.8" font-family="Times,serif" font-size="14.00" fill="#000000">ReactiveFormsModule</text>
</g>
<!-- ReactiveFormsModule&#45;&gt;AppModule -->
<g id="edge12" class="edge">
<title>ReactiveFormsModule&#45;&gt;AppModule</title>
<path fill="none" stroke="#000000" d="M2046,-122.308C2046,-142.1455 2046,-171 2046,-171 2046,-171 1539.9407,-171 1539.9407,-171"/>
<polygon fill="#000000" stroke="#000000" points="1539.9407,-167.5001 1529.9407,-171 1539.9407,-174.5001 1539.9407,-167.5001"/>
</g>
<!-- AppRoutingModule -->
<g id="node14" class="node">
<title>AppRoutingModule</title>
<polygon fill="#8dd3c7" stroke="#000000" points="1955.2744,-122 1952.2744,-126 1931.2744,-126 1928.2744,-122 1826.7256,-122 1826.7256,-86 1955.2744,-86 1955.2744,-122"/>
<text text-anchor="middle" x="1891" y="-99.8" font-family="Times,serif" font-size="14.00" fill="#000000">AppRoutingModule</text>
</g>
<!-- AppRoutingModule&#45;&gt;AppModule -->
<g id="edge13" class="edge">
<title>AppRoutingModule&#45;&gt;AppModule</title>
<path fill="none" stroke="#000000" d="M1891,-122.1686C1891,-141.0898 1891,-168 1891,-168 1891,-168 1539.9876,-168 1539.9876,-168"/>
<polygon fill="#000000" stroke="#000000" points="1539.9876,-164.5001 1529.9876,-168 1539.9876,-171.5001 1539.9876,-164.5001"/>
</g>
<!-- MatSliderModule -->
<g id="node15" class="node">
<title>MatSliderModule</title>
<polygon fill="#8dd3c7" stroke="#000000" points="1808.5395,-122 1805.5395,-126 1784.5395,-126 1781.5395,-122 1693.4605,-122 1693.4605,-86 1808.5395,-86 1808.5395,-122"/>
<text text-anchor="middle" x="1751" y="-99.8" font-family="Times,serif" font-size="14.00" fill="#000000">MatSliderModule</text>
</g>
<!-- MatSliderModule&#45;&gt;AppModule -->
<g id="edge14" class="edge">
<title>MatSliderModule&#45;&gt;AppModule</title>
<path fill="none" stroke="#000000" d="M1751,-122.002C1751,-139.6754 1751,-164 1751,-164 1751,-164 1539.6731,-164 1539.6731,-164"/>
<polygon fill="#000000" stroke="#000000" points="1539.6732,-160.5001 1529.6731,-164 1539.6731,-167.5001 1539.6732,-160.5001"/>
</g>
<!-- HttpClientModule -->
<g id="node16" class="node">
<title>HttpClientModule</title>
<polygon fill="#8dd3c7" stroke="#000000" points="2368.1611,-122 2365.1611,-126 2344.1611,-126 2341.1611,-122 2249.8389,-122 2249.8389,-86 2368.1611,-86 2368.1611,-122"/>
<text text-anchor="middle" x="2309" y="-99.8" font-family="Times,serif" font-size="14.00" fill="#000000">HttpClientModule</text>
</g>
<!-- HttpClientModule&#45;&gt;AppModule -->
<g id="edge15" class="edge">
<title>HttpClientModule&#45;&gt;AppModule</title>
<path fill="none" stroke="#000000" d="M2309,-122.0449C2309,-143.6623 2309,-177 2309,-177 2309,-177 1539.8422,-177 1539.8422,-177"/>
<polygon fill="#000000" stroke="#000000" points="1539.8423,-173.5001 1529.8422,-177 1539.8422,-180.5001 1539.8423,-173.5001"/>
</g>
<!-- LoginService -->
<g id="node18" class="node">
<title>LoginService</title>
<ellipse fill="#fdb462" stroke="#000000" cx="584" cy="-104" rx="63.1209" ry="18"/>
<text text-anchor="middle" x="584" y="-99.8" font-family="Times,serif" font-size="14.00" fill="#000000">LoginService</text>
</g>
<!-- LoginService&#45;&gt;AppModule -->
<g id="edge17" class="edge">
<title>LoginService&#45;&gt;AppModule</title>
<path fill="none" stroke="#000000" d="M584,-122.1686C584,-143.498 584,-176 584,-176 584,-176 1436.2112,-176 1436.2112,-176"/>
<polygon fill="#000000" stroke="#000000" points="1436.2113,-179.5001 1446.2112,-176 1436.2112,-172.5001 1436.2113,-179.5001"/>
</g>
<!-- QuestionsService -->
<g id="node19" class="node">
<title>QuestionsService</title>
<ellipse fill="#fdb462" stroke="#000000" cx="424" cy="-104" rx="78.7279" ry="18"/>
<text text-anchor="middle" x="424" y="-99.8" font-family="Times,serif" font-size="14.00" fill="#000000">QuestionsService</text>
</g>
<!-- QuestionsService&#45;&gt;AppModule -->
<g id="edge18" class="edge">
<title>QuestionsService&#45;&gt;AppModule</title>
<path fill="none" stroke="#000000" d="M424,-122.0109C424,-144.4852 424,-180 424,-180 424,-180 1436.2899,-180 1436.2899,-180"/>
<polygon fill="#000000" stroke="#000000" points="1436.29,-183.5001 1446.2899,-180 1436.2899,-176.5001 1436.29,-183.5001"/>
</g>
<!-- PreviewService -->
<g id="node20" class="node">
<title>PreviewService</title>
<ellipse fill="#fdb462" stroke="#000000" cx="256" cy="-104" rx="71.7641" ry="18"/>
<text text-anchor="middle" x="256" y="-99.8" font-family="Times,serif" font-size="14.00" fill="#000000">PreviewService</text>
</g>
<!-- PreviewService&#45;&gt;AppModule -->
<g id="edge19" class="edge">
<title>PreviewService&#45;&gt;AppModule</title>
<path fill="none" stroke="#000000" d="M256,-122.3228C256,-145.6602 256,-183 256,-183 256,-183 1436.3032,-183 1436.3032,-183"/>
<polygon fill="#000000" stroke="#000000" points="1436.3032,-186.5001 1446.3032,-183 1436.3032,-179.5001 1436.3032,-186.5001"/>
</g>
<!-- SettingsService -->
<g id="node21" class="node">
<title>SettingsService</title>
<ellipse fill="#fdb462" stroke="#000000" cx="95" cy="-104" rx="71.221" ry="18"/>
<text text-anchor="middle" x="95" y="-99.8" font-family="Times,serif" font-size="14.00" fill="#000000">SettingsService</text>
</g>
<!-- SettingsService&#45;&gt;AppModule -->
<g id="edge20" class="edge">
<title>SettingsService&#45;&gt;AppModule</title>
<path fill="none" stroke="#000000" d="M95,-122.0098C95,-146.4207 95,-187 95,-187 95,-187 1436.3103,-187 1436.3103,-187"/>
<polygon fill="#000000" stroke="#000000" points="1436.3103,-190.5001 1446.3103,-187 1436.3102,-183.5001 1436.3103,-190.5001"/>
</g>
</g>
</svg>
