<?xml version="1.0" encoding="UTF-8" standalone="no"?>
<!DOCTYPE svg PUBLIC "-//W3C//DTD SVG 1.1//EN"
 "http://www.w3.org/Graphics/SVG/1.1/DTD/svg11.dtd">
<!-- Generated by graphviz version 2.44.1 (20200629.0846)
 -->
<!-- Title: dependencies Pages: 1 -->
<svg width="2104pt" height="284pt"
 viewBox="0.00 0.00 2104.00 284.00" xmlns="http://www.w3.org/2000/svg" xmlns:xlink="http://www.w3.org/1999/xlink">
<g id="graph0" class="graph" transform="scale(1 1) rotate(0) translate(4 280)">
<title>dependencies</title>
<polygon fill="white" stroke="transparent" points="-4,4 -4,-280 2100,-280 2100,4 -4,4"/>
<text text-anchor="start" x="1027.01" y="-42.4" font-family="sans-serif" font-weight="bold" font-size="14.00">Legend</text>
<polygon fill="#ffffb3" stroke="transparent" points="814,-10 814,-30 834,-30 834,-10 814,-10"/>
<text text-anchor="start" x="837.63" y="-15.4" font-family="sans-serif" font-size="14.00"> &#160;Declarations</text>
<polygon fill="#8dd3c7" stroke="transparent" points="927,-10 927,-30 947,-30 947,-10 927,-10"/>
<text text-anchor="start" x="950.73" y="-15.4" font-family="sans-serif" font-size="14.00"> &#160;Module</text>
<polygon fill="#80b1d3" stroke="transparent" points="1013,-10 1013,-30 1033,-30 1033,-10 1013,-10"/>
<text text-anchor="start" x="1036.78" y="-15.4" font-family="sans-serif" font-size="14.00"> &#160;Bootstrap</text>
<polygon fill="#fdb462" stroke="transparent" points="1110,-10 1110,-30 1130,-30 1130,-10 1110,-10"/>
<text text-anchor="start" x="1133.67" y="-15.4" font-family="sans-serif" font-size="14.00"> &#160;Providers</text>
<polygon fill="#fb8072" stroke="transparent" points="1206,-10 1206,-30 1226,-30 1226,-10 1206,-10"/>
<text text-anchor="start" x="1229.73" y="-15.4" font-family="sans-serif" font-size="14.00"> &#160;Exports</text>
<g id="clust1" class="cluster">
<title>cluster_AppModule</title>
<polygon fill="none" stroke="black" stroke-dasharray="1,5" points="8,-70 8,-268 2088,-268 2088,-70 8,-70"/>
</g>
<g id="clust8" class="cluster">
<title>cluster_AppModule_imports</title>
<polygon fill="none" stroke="black" points="1219,-78 1219,-130 2080,-130 2080,-78 1219,-78"/>
</g>
<g id="clust2" class="cluster">
<title>cluster_AppModule_declarations</title>
<polygon fill="none" stroke="black" points="503,-78 503,-130 1211,-130 1211,-78 503,-78"/>
</g>
<g id="clust10" class="cluster">
<title>cluster_AppModule_bootstrap</title>
<polygon fill="none" stroke="black" points="1024,-208 1024,-260 1148,-260 1148,-208 1024,-208"/>
</g>
<g id="clust11" class="cluster">
<title>cluster_AppModule_providers</title>
<polygon fill="none" stroke="black" points="16,-78 16,-130 495,-130 495,-78 16,-78"/>
</g>
<!-- AppComponent -->
<g id="node1" class="node">
<title>AppComponent</title>
<polygon fill="#ffffb3" stroke="black" points="1202.94,-122 1097.06,-122 1097.06,-86 1202.94,-86 1202.94,-122"/>
<text text-anchor="middle" x="1150" y="-99.8" font-family="Times,serif" font-size="14.00">AppComponent</text>
</g>
<!-- AppModule -->
<g id="node6" class="node">
<title>AppModule</title>
<polygon fill="#8dd3c7" stroke="black" points="1127.66,-187 1124.66,-191 1103.66,-191 1100.66,-187 1044.34,-187 1044.34,-151 1127.66,-151 1127.66,-187"/>
<text text-anchor="middle" x="1086" y="-164.8" font-family="Times,serif" font-size="14.00">AppModule</text>
</g>
<!-- AppComponent&#45;&gt;AppModule -->
<g id="edge1" class="edge">
<title>AppComponent&#45;&gt;AppModule</title>
<path fill="none" stroke="black" d="M1112.55,-122.11C1112.55,-122.11 1112.55,-140.99 1112.55,-140.99"/>
<polygon fill="black" stroke="black" points="1109.05,-140.99 1112.55,-150.99 1116.05,-140.99 1109.05,-140.99"/>
</g>
<!-- LoginComponent -->
<g id="node2" class="node">
<title>LoginComponent</title>
<polygon fill="#ffffb3" stroke="black" points="1079.28,-122 964.72,-122 964.72,-86 1079.28,-86 1079.28,-122"/>
<text text-anchor="middle" x="1022" y="-99.8" font-family="Times,serif" font-size="14.00">LoginComponent</text>
</g>
<!-- LoginComponent&#45;&gt;AppModule -->
<g id="edge2" class="edge">
<title>LoginComponent&#45;&gt;AppModule</title>
<path fill="none" stroke="black" d="M1061.78,-122.11C1061.78,-122.11 1061.78,-140.99 1061.78,-140.99"/>
<polygon fill="black" stroke="black" points="1058.28,-140.99 1061.78,-150.99 1065.28,-140.99 1058.28,-140.99"/>
</g>
<!-- ControlPanelComponent -->
<g id="node3" class="node">
<title>ControlPanelComponent</title>
<polygon fill="#ffffb3" stroke="black" points="946.71,-122 791.29,-122 791.29,-86 946.71,-86 946.71,-122"/>
<text text-anchor="middle" x="869" y="-99.8" font-family="Times,serif" font-size="14.00">ControlPanelComponent</text>
</g>
<!-- ControlPanelComponent&#45;&gt;AppModule -->
<g id="edge3" class="edge">
<title>ControlPanelComponent&#45;&gt;AppModule</title>
<path fill="none" stroke="black" d="M869,-122.24C869,-137.57 869,-157 869,-157 869,-157 1034.16,-157 1034.16,-157"/>
<polygon fill="black" stroke="black" points="1034.16,-160.5 1044.16,-157 1034.16,-153.5 1034.16,-160.5"/>
</g>
<!-- AboutComponent -->
<g id="node4" class="node">
<title>AboutComponent</title>
<polygon fill="#ffffb3" stroke="black" points="773.33,-122 656.67,-122 656.67,-86 773.33,-86 773.33,-122"/>
<text text-anchor="middle" x="715" y="-99.8" font-family="Times,serif" font-size="14.00">AboutComponent</text>
</g>
<!-- AboutComponent&#45;&gt;AppModule -->
<g id="edge4" class="edge">
<title>AboutComponent&#45;&gt;AppModule</title>
<path fill="none" stroke="black" d="M715,-122.03C715,-139.06 715,-162 715,-162 715,-162 1034.16,-162 1034.16,-162"/>
<polygon fill="black" stroke="black" points="1034.16,-165.5 1044.16,-162 1034.16,-158.5 1034.16,-165.5"/>
</g>
<!-- PreviewComponent -->
<g id="node5" class="node">
<title>PreviewComponent</title>
<polygon fill="#ffffb3" stroke="black" points="638.7,-122 511.3,-122 511.3,-86 638.7,-86 638.7,-122"/>
<text text-anchor="middle" x="575" y="-99.8" font-family="Times,serif" font-size="14.00">PreviewComponent</text>
</g>
<!-- PreviewComponent&#45;&gt;AppModule -->
<g id="edge5" class="edge">
<title>PreviewComponent&#45;&gt;AppModule</title>
<path fill="none" stroke="black" d="M575,-122.22C575,-140.83 575,-167 575,-167 575,-167 1034.18,-167 1034.18,-167"/>
<polygon fill="black" stroke="black" points="1034.18,-170.5 1044.18,-167 1034.18,-163.5 1034.18,-170.5"/>
</g>
<!-- AppComponent  -->
<g id="node13" class="node">
<title>AppComponent </title>
<polygon fill="#80b1d3" stroke="black" points="1140.44,-252 1031.56,-252 1031.56,-216 1140.44,-216 1140.44,-252"/>
<text text-anchor="middle" x="1086" y="-229.8" font-family="Times,serif" font-size="14.00">AppComponent </text>
</g>
<!-- AppModule&#45;&gt;AppComponent  -->
<g id="edge12" class="edge">
<title>AppModule&#45;&gt;AppComponent </title>
<path fill="none" stroke="black" stroke-dasharray="1,5" d="M1086,-187.11C1086,-187.11 1086,-205.99 1086,-205.99"/>
<polygon fill="black" stroke="black" points="1082.5,-205.99 1086,-215.99 1089.5,-205.99 1082.5,-205.99"/>
</g>
<!-- BrowserModule -->
<g id="node7" class="node">
<title>BrowserModule</title>
<polygon fill="#8dd3c7" stroke="black" points="2072.47,-122 2069.47,-126 2048.47,-126 2045.47,-122 1965.53,-122 1965.53,-86 2072.47,-86 2072.47,-122"/>
<text text-anchor="middle" x="2019" y="-99.8" font-family="Times,serif" font-size="14.00">BrowserModule</text>
</g>
<!-- BrowserModule&#45;&gt;AppModule -->
<g id="edge6" class="edge">
<title>BrowserModule&#45;&gt;AppModule</title>
<path fill="none" stroke="black" d="M2019,-122.09C2019,-145.13 2019,-182 2019,-182 2019,-182 1137.9,-182 1137.9,-182"/>
<polygon fill="black" stroke="black" points="1137.9,-178.5 1127.9,-182 1137.9,-185.5 1137.9,-178.5"/>
</g>
<!-- BrowserAnimationsModule -->
<g id="node8" class="node">
<title>BrowserAnimationsModule</title>
<polygon fill="#8dd3c7" stroke="black" points="1947.3,-122 1944.3,-126 1923.3,-126 1920.3,-122 1774.7,-122 1774.7,-86 1947.3,-86 1947.3,-122"/>
<text text-anchor="middle" x="1861" y="-99.8" font-family="Times,serif" font-size="14.00">BrowserAnimationsModule</text>
</g>
<!-- BrowserAnimationsModule&#45;&gt;AppModule -->
<g id="edge7" class="edge">
<title>BrowserAnimationsModule&#45;&gt;AppModule</title>
<path fill="none" stroke="black" d="M1861,-122.04C1861,-143.66 1861,-177 1861,-177 1861,-177 1137.67,-177 1137.67,-177"/>
<polygon fill="black" stroke="black" points="1137.67,-173.5 1127.67,-177 1137.67,-180.5 1137.67,-173.5"/>
</g>
<!-- MaterialModule -->
<g id="node9" class="node">
<title>MaterialModule</title>
<polygon fill="#8dd3c7" stroke="black" points="1756.47,-122 1753.47,-126 1732.47,-126 1729.47,-122 1649.53,-122 1649.53,-86 1756.47,-86 1756.47,-122"/>
<text text-anchor="middle" x="1703" y="-99.8" font-family="Times,serif" font-size="14.00">MaterialModule</text>
</g>
<!-- MaterialModule&#45;&gt;AppModule -->
<g id="edge8" class="edge">
<title>MaterialModule&#45;&gt;AppModule</title>
<path fill="none" stroke="black" d="M1703,-122.22C1703,-142.37 1703,-172 1703,-172 1703,-172 1137.92,-172 1137.92,-172"/>
<polygon fill="black" stroke="black" points="1137.92,-168.5 1127.92,-172 1137.92,-175.5 1137.92,-168.5"/>
</g>
<!-- FormsModule -->
<g id="node10" class="node">
<title>FormsModule</title>
<polygon fill="#8dd3c7" stroke="black" points="1631.83,-122 1628.83,-126 1607.83,-126 1604.83,-122 1536.17,-122 1536.17,-86 1631.83,-86 1631.83,-122"/>
<text text-anchor="middle" x="1584" y="-99.8" font-family="Times,serif" font-size="14.00">FormsModule</text>
</g>
<!-- FormsModule&#45;&gt;AppModule -->
<g id="edge9" class="edge">
<title>FormsModule&#45;&gt;AppModule</title>
<path fill="none" stroke="black" d="M1584,-122.22C1584,-140.83 1584,-167 1584,-167 1584,-167 1138.03,-167 1138.03,-167"/>
<polygon fill="black" stroke="black" points="1138.03,-163.5 1128.03,-167 1138.03,-170.5 1138.03,-163.5"/>
</g>
<!-- ReactiveFormsModule -->
<g id="node11" class="node">
<title>ReactiveFormsModule</title>
<polygon fill="#8dd3c7" stroke="black" points="1518.3,-122 1515.3,-126 1494.3,-126 1491.3,-122 1373.7,-122 1373.7,-86 1518.3,-86 1518.3,-122"/>
<text text-anchor="middle" x="1446" y="-99.8" font-family="Times,serif" font-size="14.00">ReactiveFormsModule</text>
</g>
<!-- ReactiveFormsModule&#45;&gt;AppModule -->
<g id="edge10" class="edge">
<title>ReactiveFormsModule&#45;&gt;AppModule</title>
<path fill="none" stroke="black" d="M1446,-122.03C1446,-139.06 1446,-162 1446,-162 1446,-162 1138,-162 1138,-162"/>
<polygon fill="black" stroke="black" points="1138,-158.5 1128,-162 1138,-165.5 1138,-158.5"/>
</g>
<!-- AppRoutingModule -->
<g id="node12" class="node">
<title>AppRoutingModule</title>
<polygon fill="#8dd3c7" stroke="black" points="1355.27,-122 1352.27,-126 1331.27,-126 1328.27,-122 1226.73,-122 1226.73,-86 1355.27,-86 1355.27,-122"/>
<text text-anchor="middle" x="1291" y="-99.8" font-family="Times,serif" font-size="14.00">AppRoutingModule</text>
</g>
<!-- AppRoutingModule&#45;&gt;AppModule -->
<g id="edge11" class="edge">
<title>AppRoutingModule&#45;&gt;AppModule</title>
<path fill="none" stroke="black" d="M1291,-122.24C1291,-137.57 1291,-157 1291,-157 1291,-157 1137.98,-157 1137.98,-157"/>
<polygon fill="black" stroke="black" points="1137.98,-153.5 1127.98,-157 1137.98,-160.5 1137.98,-153.5"/>
</g>
<!-- LoginService -->
<g id="node14" class="node">
<title>LoginService</title>
<ellipse fill="#fdb462" stroke="black" cx="424" cy="-104" rx="63.12" ry="18"/>
<text text-anchor="middle" x="424" y="-99.8" font-family="Times,serif" font-size="14.00">LoginService</text>
</g>
<!-- LoginService&#45;&gt;AppModule -->
<g id="edge13" class="edge">
<title>LoginService&#45;&gt;AppModule</title>
<path fill="none" stroke="black" d="M424,-122.22C424,-142.37 424,-172 424,-172 424,-172 1034.34,-172 1034.34,-172"/>
<polygon fill="black" stroke="black" points="1034.34,-175.5 1044.34,-172 1034.34,-168.5 1034.34,-175.5"/>
</g>
<!-- QuestionsService -->
<g id="node15" class="node">
<title>QuestionsService</title>
<ellipse fill="#fdb462" stroke="black" cx="264" cy="-104" rx="78.73" ry="18"/>
<text text-anchor="middle" x="264" y="-99.8" font-family="Times,serif" font-size="14.00">QuestionsService</text>
</g>
<!-- QuestionsService&#45;&gt;AppModule -->
<g id="edge14" class="edge">
<title>QuestionsService&#45;&gt;AppModule</title>
<path fill="none" stroke="black" d="M264,-122.04C264,-143.66 264,-177 264,-177 264,-177 1034.11,-177 1034.11,-177"/>
<polygon fill="black" stroke="black" points="1034.11,-180.5 1044.11,-177 1034.11,-173.5 1034.11,-180.5"/>
</g>
<!-- PreviewService -->
<g id="node16" class="node">
<title>PreviewService</title>
<ellipse fill="#fdb462" stroke="black" cx="96" cy="-104" rx="71.76" ry="18"/>
<text text-anchor="middle" x="96" y="-99.8" font-family="Times,serif" font-size="14.00">PreviewService</text>
</g>
<!-- PreviewService&#45;&gt;AppModule -->
<g id="edge15" class="edge">
<title>PreviewService&#45;&gt;AppModule</title>
<path fill="none" stroke="black" d="M96,-122.09C96,-145.13 96,-182 96,-182 96,-182 1034.09,-182 1034.09,-182"/>
<polygon fill="black" stroke="black" points="1034.09,-185.5 1044.09,-182 1034.09,-178.5 1034.09,-185.5"/>
</g>
</g>
</svg>
