<?xml version="1.0" encoding="UTF-8" standalone="no"?>
<!DOCTYPE svg PUBLIC "-//W3C//DTD SVG 1.1//EN"
 "http://www.w3.org/Graphics/SVG/1.1/DTD/svg11.dtd">
<!-- Generated by graphviz version 2.40.1 (20161225.0304)
 -->
<!-- Title: dependencies Pages: 1 -->
<svg width="2074pt" height="211pt"
 viewBox="0.00 0.00 2074.00 211.00" xmlns="http://www.w3.org/2000/svg" xmlns:xlink="http://www.w3.org/1999/xlink">
<g id="graph0" class="graph" transform="scale(1 1) rotate(0) translate(4 207)">
<title>dependencies</title>
<polygon fill="#ffffff" stroke="transparent" points="-4,4 -4,-207 2070,-207 2070,4 -4,4"/>
<text text-anchor="start" x="1012.0091" y="-42.4" font-family="sans-serif" font-weight="bold" font-size="14.00" fill="#000000">Legend</text>
<polygon fill="#ffffb3" stroke="transparent" points="799,-10 799,-30 819,-30 819,-10 799,-10"/>
<text text-anchor="start" x="822.629" y="-15.4" font-family="sans-serif" font-size="14.00" fill="#000000"> &#160;Declarations</text>
<polygon fill="#8dd3c7" stroke="transparent" points="912,-10 912,-30 932,-30 932,-10 912,-10"/>
<text text-anchor="start" x="935.7251" y="-15.4" font-family="sans-serif" font-size="14.00" fill="#000000"> &#160;Module</text>
<polygon fill="#80b1d3" stroke="transparent" points="998,-10 998,-30 1018,-30 1018,-10 998,-10"/>
<text text-anchor="start" x="1021.7812" y="-15.4" font-family="sans-serif" font-size="14.00" fill="#000000"> &#160;Bootstrap</text>
<polygon fill="#fdb462" stroke="transparent" points="1095,-10 1095,-30 1115,-30 1115,-10 1095,-10"/>
<text text-anchor="start" x="1118.6732" y="-15.4" font-family="sans-serif" font-size="14.00" fill="#000000"> &#160;Providers</text>
<polygon fill="#fb8072" stroke="transparent" points="1191,-10 1191,-30 1211,-30 1211,-10 1191,-10"/>
<text text-anchor="start" x="1214.7258" y="-15.4" font-family="sans-serif" font-size="14.00" fill="#000000"> &#160;Exports</text>
<g id="clust1" class="cluster">
<title>cluster_MaterialModule</title>
<polygon fill="none" stroke="#000000" stroke-dasharray="1,5" points="8,-70 8,-195 2058,-195 2058,-70 8,-70"/>
</g>
<g id="clust4" class="cluster">
<title>cluster_MaterialModule_exports</title>
<polygon fill="none" stroke="#000000" points="16,-135 16,-187 2050,-187 2050,-135 16,-135"/>
</g>
<!-- MatButtonModule  -->
<g id="node1" class="node">
<title>MatButtonModule </title>
<polygon fill="#fb8072" stroke="#000000" points="2041.7177,-179 1918.2823,-179 1918.2823,-143 2041.7177,-143 2041.7177,-179"/>
<text text-anchor="middle" x="1980" y="-156.8" font-family="Times,serif" font-size="14.00" fill="#000000">MatButtonModule </text>
</g>
<!-- MatTabsModule  -->
<g id="node2" class="node">
<title>MatTabsModule </title>
<polygon fill="#fb8072" stroke="#000000" points="1900.3116,-179 1787.6884,-179 1787.6884,-143 1900.3116,-143 1900.3116,-179"/>
<text text-anchor="middle" x="1844" y="-156.8" font-family="Times,serif" font-size="14.00" fill="#000000">MatTabsModule </text>
</g>
<!-- MatCardModule  -->
<g id="node3" class="node">
<title>MatCardModule </title>
<polygon fill="#fb8072" stroke="#000000" points="1769.3116,-179 1656.6884,-179 1656.6884,-143 1769.3116,-143 1769.3116,-179"/>
<text text-anchor="middle" x="1713" y="-156.8" font-family="Times,serif" font-size="14.00" fill="#000000">MatCardModule </text>
</g>
<!-- MatToolbarModule  -->
<g id="node4" class="node">
<title>MatToolbarModule </title>
<polygon fill="#fb8072" stroke="#000000" points="1638.918,-179 1509.082,-179 1509.082,-143 1638.918,-143 1638.918,-179"/>
<text text-anchor="middle" x="1574" y="-156.8" font-family="Times,serif" font-size="14.00" fill="#000000">MatToolbarModule </text>
</g>
<!-- MatIconModule  -->
<g id="node5" class="node">
<title>MatIconModule </title>
<polygon fill="#fb8072" stroke="#000000" points="1491.4758,-179 1380.5242,-179 1380.5242,-143 1491.4758,-143 1491.4758,-179"/>
<text text-anchor="middle" x="1436" y="-156.8" font-family="Times,serif" font-size="14.00" fill="#000000">MatIconModule </text>
</g>
<!-- MatGridListModule  -->
<g id="node6" class="node">
<title>MatGridListModule </title>
<polygon fill="#fb8072" stroke="#000000" points="1362.5358,-179 1229.4642,-179 1229.4642,-143 1362.5358,-143 1362.5358,-179"/>
<text text-anchor="middle" x="1296" y="-156.8" font-family="Times,serif" font-size="14.00" fill="#000000">MatGridListModule </text>
</g>
<!-- MatSlideToggleModule  -->
<g id="node7" class="node">
<title>MatSlideToggleModule </title>
<polygon fill="#fb8072" stroke="#000000" points="1211.0358,-179 1056.9642,-179 1056.9642,-143 1211.0358,-143 1211.0358,-179"/>
<text text-anchor="middle" x="1134" y="-156.8" font-family="Times,serif" font-size="14.00" fill="#000000">MatSlideToggleModule </text>
</g>
<!-- MatSliderModule  -->
<g id="node8" class="node">
<title>MatSliderModule </title>
<polygon fill="#fb8072" stroke="#000000" points="1038.5386,-179 919.4614,-179 919.4614,-143 1038.5386,-143 1038.5386,-179"/>
<text text-anchor="middle" x="979" y="-156.8" font-family="Times,serif" font-size="14.00" fill="#000000">MatSliderModule </text>
</g>
<!-- MatDividerModule  -->
<g id="node9" class="node">
<title>MatDividerModule </title>
<polygon fill="#fb8072" stroke="#000000" points="901.3631,-179 772.6369,-179 772.6369,-143 901.3631,-143 901.3631,-179"/>
<text text-anchor="middle" x="837" y="-156.8" font-family="Times,serif" font-size="14.00" fill="#000000">MatDividerModule </text>
</g>
<!-- FlexLayoutModule  -->
<g id="node10" class="node">
<title>FlexLayoutModule </title>
<polygon fill="#fb8072" stroke="#000000" points="754.596,-179 627.404,-179 627.404,-143 754.596,-143 754.596,-179"/>
<text text-anchor="middle" x="691" y="-156.8" font-family="Times,serif" font-size="14.00" fill="#000000">FlexLayoutModule </text>
</g>
<!-- MatInputModule  -->
<g id="node11" class="node">
<title>MatInputModule </title>
<polygon fill="#fb8072" stroke="#000000" points="609.6509,-179 494.3491,-179 494.3491,-143 609.6509,-143 609.6509,-179"/>
<text text-anchor="middle" x="552" y="-156.8" font-family="Times,serif" font-size="14.00" fill="#000000">MatInputModule </text>
</g>
<!-- MatFormFieldModule  -->
<g id="node12" class="node">
<title>MatFormFieldModule </title>
<polygon fill="#fb8072" stroke="#000000" points="476.2121,-179 331.7879,-179 331.7879,-143 476.2121,-143 476.2121,-179"/>
<text text-anchor="middle" x="404" y="-156.8" font-family="Times,serif" font-size="14.00" fill="#000000">MatFormFieldModule </text>
</g>
<!-- MatExpansionModule  -->
<g id="node13" class="node">
<title>MatExpansionModule </title>
<polygon fill="#fb8072" stroke="#000000" points="313.2023,-179 168.7977,-179 168.7977,-143 313.2023,-143 313.2023,-179"/>
<text text-anchor="middle" x="241" y="-156.8" font-family="Times,serif" font-size="14.00" fill="#000000">MatExpansionModule </text>
</g>
<!-- MatTooltipModule  -->
<g id="node14" class="node">
<title>MatTooltipModule </title>
<polygon fill="#fb8072" stroke="#000000" points="150.3241,-179 23.6759,-179 23.6759,-143 150.3241,-143 150.3241,-179"/>
<text text-anchor="middle" x="87" y="-156.8" font-family="Times,serif" font-size="14.00" fill="#000000">MatTooltipModule </text>
</g>
<!-- MaterialModule -->
<g id="node15" class="node">
<title>MaterialModule</title>
<polygon fill="#8dd3c7" stroke="#000000" points="1109.4706,-114 1106.4706,-118 1085.4706,-118 1082.4706,-114 1002.5294,-114 1002.5294,-78 1109.4706,-78 1109.4706,-114"/>
<text text-anchor="middle" x="1056" y="-91.8" font-family="Times,serif" font-size="14.00" fill="#000000">MaterialModule</text>
</g>
<!-- MaterialModule&#45;&gt;MatButtonModule  -->
<g id="edge1" class="edge">
<title>MaterialModule&#45;&gt;MatButtonModule </title>
<path fill="none" stroke="#000000" stroke-dasharray="5,2" d="M1109.672,-84C1306.8762,-84 1980,-84 1980,-84 1980,-84 1980,-132.7521 1980,-132.7521"/>
<polygon fill="#000000" stroke="#000000" points="1976.5001,-132.752 1980,-142.7521 1983.5001,-132.7521 1976.5001,-132.752"/>
</g>
<!-- MaterialModule&#45;&gt;MatTabsModule  -->
<g id="edge2" class="edge">
<title>MaterialModule&#45;&gt;MatTabsModule </title>
<path fill="none" stroke="#000000" stroke-dasharray="5,2" d="M1109.5429,-89C1286.9007,-89 1844,-89 1844,-89 1844,-89 1844,-132.8314 1844,-132.8314"/>
<polygon fill="#000000" stroke="#000000" points="1840.5001,-132.8313 1844,-142.8314 1847.5001,-132.8314 1840.5001,-132.8313"/>
</g>
<!-- MaterialModule&#45;&gt;MatCardModule  -->
<g id="edge3" class="edge">
<title>MaterialModule&#45;&gt;MatCardModule </title>
<path fill="none" stroke="#000000" stroke-dasharray="5,2" d="M1109.4865,-94C1266.1469,-94 1713,-94 1713,-94 1713,-94 1713,-132.692 1713,-132.692"/>
<polygon fill="#000000" stroke="#000000" points="1709.5001,-132.6919 1713,-142.692 1716.5001,-132.692 1709.5001,-132.6919"/>
</g>
<!-- MaterialModule&#45;&gt;MatToolbarModule  -->
<g id="edge4" class="edge">
<title>MaterialModule&#45;&gt;MatToolbarModule </title>
<path fill="none" stroke="#000000" stroke-dasharray="5,2" d="M1109.4841,-99C1241.8322,-99 1574,-99 1574,-99 1574,-99 1574,-132.7333 1574,-132.7333"/>
<polygon fill="#000000" stroke="#000000" points="1570.5001,-132.7333 1574,-142.7333 1577.5001,-132.7333 1570.5001,-132.7333"/>
</g>
<!-- MaterialModule&#45;&gt;MatIconModule  -->
<g id="edge5" class="edge">
<title>MaterialModule&#45;&gt;MatIconModule </title>
<path fill="none" stroke="#000000" stroke-dasharray="5,2" d="M1109.6388,-104C1214.386,-104 1436,-104 1436,-104 1436,-104 1436,-132.9648 1436,-132.9648"/>
<polygon fill="#000000" stroke="#000000" points="1432.5001,-132.9648 1436,-142.9648 1439.5001,-132.9649 1432.5001,-132.9648"/>
</g>
<!-- MaterialModule&#45;&gt;MatGridListModule  -->
<g id="edge6" class="edge">
<title>MaterialModule&#45;&gt;MatGridListModule </title>
<path fill="none" stroke="#000000" stroke-dasharray="5,2" d="M1109.562,-109C1180.2954,-109 1296,-109 1296,-109 1296,-109 1296,-132.8129 1296,-132.8129"/>
<polygon fill="#000000" stroke="#000000" points="1292.5001,-132.8129 1296,-142.8129 1299.5001,-132.813 1292.5001,-132.8129"/>
</g>
<!-- MaterialModule&#45;&gt;MatSlideToggleModule  -->
<g id="edge7" class="edge">
<title>MaterialModule&#45;&gt;MatSlideToggleModule </title>
<path fill="none" stroke="#000000" stroke-dasharray="5,2" d="M1083.2337,-114.1061C1083.2337,-114.1061 1083.2337,-132.991 1083.2337,-132.991"/>
<polygon fill="#000000" stroke="#000000" points="1079.7338,-132.9909 1083.2337,-142.991 1086.7338,-132.991 1079.7338,-132.9909"/>
</g>
<!-- MaterialModule&#45;&gt;MatSliderModule  -->
<g id="edge8" class="edge">
<title>MaterialModule&#45;&gt;MatSliderModule </title>
<path fill="none" stroke="#000000" stroke-dasharray="5,2" d="M1020.517,-114.1061C1020.517,-114.1061 1020.517,-132.991 1020.517,-132.991"/>
<polygon fill="#000000" stroke="#000000" points="1017.0171,-132.9909 1020.517,-142.991 1024.0171,-132.991 1017.0171,-132.9909"/>
</g>
<!-- MaterialModule&#45;&gt;MatDividerModule  -->
<g id="edge9" class="edge">
<title>MaterialModule&#45;&gt;MatDividerModule </title>
<path fill="none" stroke="#000000" stroke-dasharray="5,2" d="M1002.4266,-109C937.5919,-109 837,-109 837,-109 837,-109 837,-132.8129 837,-132.8129"/>
<polygon fill="#000000" stroke="#000000" points="833.5001,-132.8129 837,-142.8129 840.5001,-132.813 833.5001,-132.8129"/>
</g>
<!-- MaterialModule&#45;&gt;FlexLayoutModule  -->
<g id="edge10" class="edge">
<title>MaterialModule&#45;&gt;FlexLayoutModule </title>
<path fill="none" stroke="#000000" stroke-dasharray="5,2" d="M1002.143,-104C900.6121,-104 691,-104 691,-104 691,-104 691,-132.9648 691,-132.9648"/>
<polygon fill="#000000" stroke="#000000" points="687.5001,-132.9648 691,-142.9648 694.5001,-132.9649 687.5001,-132.9648"/>
</g>
<!-- MaterialModule&#45;&gt;MatInputModule  -->
<g id="edge11" class="edge">
<title>MaterialModule&#45;&gt;MatInputModule </title>
<path fill="none" stroke="#000000" stroke-dasharray="5,2" d="M1002.0632,-99C872.0449,-99 552,-99 552,-99 552,-99 552,-132.7333 552,-132.7333"/>
<polygon fill="#000000" stroke="#000000" points="548.5001,-132.7333 552,-142.7333 555.5001,-132.7333 548.5001,-132.7333"/>
</g>
<!-- MaterialModule&#45;&gt;MatFormFieldModule  -->
<g id="edge12" class="edge">
<title>MaterialModule&#45;&gt;MatFormFieldModule </title>
<path fill="none" stroke="#000000" stroke-dasharray="5,2" d="M1002.3671,-94C846.4028,-94 404,-94 404,-94 404,-94 404,-132.692 404,-132.692"/>
<polygon fill="#000000" stroke="#000000" points="400.5001,-132.6919 404,-142.692 407.5001,-132.692 400.5001,-132.6919"/>
</g>
<!-- MaterialModule&#45;&gt;MatExpansionModule  -->
<g id="edge13" class="edge">
<title>MaterialModule&#45;&gt;MatExpansionModule </title>
<path fill="none" stroke="#000000" stroke-dasharray="5,2" d="M1002.5256,-89C821.21,-89 241,-89 241,-89 241,-89 241,-132.8314 241,-132.8314"/>
<polygon fill="#000000" stroke="#000000" points="237.5001,-132.8313 241,-142.8314 244.5001,-132.8314 237.5001,-132.8313"/>
</g>
<!-- MaterialModule&#45;&gt;MatTooltipModule  -->
<g id="edge14" class="edge">
<title>MaterialModule&#45;&gt;MatTooltipModule </title>
<path fill="none" stroke="#000000" stroke-dasharray="5,2" d="M1002.5221,-84C799.3819,-84 87,-84 87,-84 87,-84 87,-132.7521 87,-132.7521"/>
<polygon fill="#000000" stroke="#000000" points="83.5001,-132.752 87,-142.7521 90.5001,-132.7521 83.5001,-132.752"/>
</g>
</g>
</svg>
