<?xml version="1.0" encoding="UTF-8" standalone="no"?>
<!DOCTYPE svg PUBLIC "-//W3C//DTD SVG 1.1//EN"
 "http://www.w3.org/Graphics/SVG/1.1/DTD/svg11.dtd">
<!-- Generated by graphviz version 2.40.1 (20161225.0304)
 -->
<!-- Title: dependencies Pages: 1 -->
<svg width="2840pt" height="284pt"
 viewBox="0.00 0.00 2840.00 284.00" xmlns="http://www.w3.org/2000/svg" xmlns:xlink="http://www.w3.org/1999/xlink">
<g id="graph0" class="graph" transform="scale(1 1) rotate(0) translate(4 280)">
<title>dependencies</title>
<polygon fill="#ffffff" stroke="transparent" points="-4,4 -4,-280 2836,-280 2836,4 -4,4"/>
<text text-anchor="start" x="1395.0091" y="-42.4" font-family="sans-serif" font-weight="bold" font-size="14.00" fill="#000000">Legend</text>
<polygon fill="#ffffb3" stroke="transparent" points="1182,-10 1182,-30 1202,-30 1202,-10 1182,-10"/>
<text text-anchor="start" x="1205.629" y="-15.4" font-family="sans-serif" font-size="14.00" fill="#000000"> &#160;Declarations</text>
<polygon fill="#8dd3c7" stroke="transparent" points="1295,-10 1295,-30 1315,-30 1315,-10 1295,-10"/>
<text text-anchor="start" x="1318.7251" y="-15.4" font-family="sans-serif" font-size="14.00" fill="#000000"> &#160;Module</text>
<polygon fill="#80b1d3" stroke="transparent" points="1381,-10 1381,-30 1401,-30 1401,-10 1381,-10"/>
<text text-anchor="start" x="1404.7812" y="-15.4" font-family="sans-serif" font-size="14.00" fill="#000000"> &#160;Bootstrap</text>
<polygon fill="#fdb462" stroke="transparent" points="1478,-10 1478,-30 1498,-30 1498,-10 1478,-10"/>
<text text-anchor="start" x="1501.6732" y="-15.4" font-family="sans-serif" font-size="14.00" fill="#000000"> &#160;Providers</text>
<polygon fill="#fb8072" stroke="transparent" points="1574,-10 1574,-30 1594,-30 1594,-10 1574,-10"/>
<text text-anchor="start" x="1597.7258" y="-15.4" font-family="sans-serif" font-size="14.00" fill="#000000"> &#160;Exports</text>
<g id="clust1" class="cluster">
<title>cluster_AppModule</title>
<polygon fill="none" stroke="#000000" stroke-dasharray="1,5" points="8,-70 8,-268 2824,-268 2824,-70 8,-70"/>
</g>
<g id="clust2" class="cluster">
<title>cluster_AppModule_declarations</title>
<polygon fill="none" stroke="#000000" points="1802,-78 1802,-130 2816,-130 2816,-78 1802,-78"/>
</g>
<g id="clust10" class="cluster">
<title>cluster_AppModule_imports</title>
<polygon fill="none" stroke="#000000" points="663,-78 663,-130 1794,-130 1794,-78 663,-78"/>
</g>
<g id="clust12" class="cluster">
<title>cluster_AppModule_bootstrap</title>
<polygon fill="none" stroke="#000000" points="1355,-208 1355,-260 1479,-260 1479,-208 1355,-208"/>
</g>
<g id="clust13" class="cluster">
<title>cluster_AppModule_providers</title>
<polygon fill="none" stroke="#000000" points="16,-78 16,-130 655,-130 655,-78 16,-78"/>
</g>
<!-- AppComponent -->
<g id="node1" class="node">
<title>AppComponent</title>
<polygon fill="#ffffb3" stroke="#000000" points="2807.9399,-122 2702.0601,-122 2702.0601,-86 2807.9399,-86 2807.9399,-122"/>
<text text-anchor="middle" x="2755" y="-99.8" font-family="Times,serif" font-size="14.00" fill="#000000">AppComponent</text>
</g>
<!-- AppModule -->
<g id="node8" class="node">
<title>AppModule</title>
<polygon fill="#8dd3c7" stroke="#000000" points="1458.6571,-187 1455.6571,-191 1434.6571,-191 1431.6571,-187 1375.3429,-187 1375.3429,-151 1458.6571,-151 1458.6571,-187"/>
<text text-anchor="middle" x="1417" y="-164.8" font-family="Times,serif" font-size="14.00" fill="#000000">AppModule</text>
</g>
<!-- AppComponent&#45;&gt;AppModule -->
<g id="edge1" class="edge">
<title>AppComponent&#45;&gt;AppModule</title>
<path fill="none" stroke="#000000" d="M2755,-122.1532C2755,-145.7566 2755,-184 2755,-184 2755,-184 1468.8815,-184 1468.8815,-184"/>
<polygon fill="#000000" stroke="#000000" points="1468.8815,-180.5001 1458.8815,-184 1468.8814,-187.5001 1468.8815,-180.5001"/>
</g>
<!-- LoginComponent -->
<g id="node2" class="node">
<title>LoginComponent</title>
<polygon fill="#ffffb3" stroke="#000000" points="2684.2758,-122 2569.7242,-122 2569.7242,-86 2684.2758,-86 2684.2758,-122"/>
<text text-anchor="middle" x="2627" y="-99.8" font-family="Times,serif" font-size="14.00" fill="#000000">LoginComponent</text>
</g>
<!-- LoginComponent&#45;&gt;AppModule -->
<g id="edge2" class="edge">
<title>LoginComponent&#45;&gt;AppModule</title>
<path fill="none" stroke="#000000" d="M2627,-122.0109C2627,-144.4852 2627,-180 2627,-180 2627,-180 1469.0023,-180 1469.0023,-180"/>
<polygon fill="#000000" stroke="#000000" points="1469.0024,-176.5001 1459.0023,-180 1469.0023,-183.5001 1469.0024,-176.5001"/>
</g>
<!-- ControlPanelComponent -->
<g id="node3" class="node">
<title>ControlPanelComponent</title>
<polygon fill="#ffffb3" stroke="#000000" points="2551.7133,-122 2396.2867,-122 2396.2867,-86 2551.7133,-86 2551.7133,-122"/>
<text text-anchor="middle" x="2474" y="-99.8" font-family="Times,serif" font-size="14.00" fill="#000000">ControlPanelComponent</text>
</g>
<!-- ControlPanelComponent&#45;&gt;AppModule -->
<g id="edge3" class="edge">
<title>ControlPanelComponent&#45;&gt;AppModule</title>
<path fill="none" stroke="#000000" d="M2474,-122.0449C2474,-143.6623 2474,-177 2474,-177 2474,-177 1468.7612,-177 1468.7612,-177"/>
<polygon fill="#000000" stroke="#000000" points="1468.7612,-173.5001 1458.7612,-177 1468.7612,-180.5001 1468.7612,-173.5001"/>
</g>
<!-- AboutComponent -->
<g id="node4" class="node">
<title>AboutComponent</title>
<polygon fill="#ffffb3" stroke="#000000" points="2378.3301,-122 2261.6699,-122 2261.6699,-86 2378.3301,-86 2378.3301,-122"/>
<text text-anchor="middle" x="2320" y="-99.8" font-family="Times,serif" font-size="14.00" fill="#000000">AboutComponent</text>
</g>
<!-- AboutComponent&#45;&gt;AppModule -->
<g id="edge4" class="edge">
<title>AboutComponent&#45;&gt;AppModule</title>
<path fill="none" stroke="#000000" d="M2320,-122.1289C2320,-142.5724 2320,-173 2320,-173 2320,-173 1468.7425,-173 1468.7425,-173"/>
<polygon fill="#000000" stroke="#000000" points="1468.7426,-169.5001 1458.7425,-173 1468.7425,-176.5001 1468.7426,-169.5001"/>
</g>
<!-- PreviewComponent -->
<g id="node5" class="node">
<title>PreviewComponent</title>
<polygon fill="#ffffb3" stroke="#000000" points="2243.7022,-122 2116.2978,-122 2116.2978,-86 2243.7022,-86 2243.7022,-122"/>
<text text-anchor="middle" x="2180" y="-99.8" font-family="Times,serif" font-size="14.00" fill="#000000">PreviewComponent</text>
</g>
<!-- PreviewComponent&#45;&gt;AppModule -->
<g id="edge5" class="edge">
<title>PreviewComponent&#45;&gt;AppModule</title>
<path fill="none" stroke="#000000" d="M2180,-122.1061C2180,-141.3391 2180,-169 2180,-169 2180,-169 1468.8361,-169 1468.8361,-169"/>
<polygon fill="#000000" stroke="#000000" points="1468.8362,-165.5001 1458.8361,-169 1468.8361,-172.5001 1468.8362,-165.5001"/>
</g>
<!-- ToggleComponent -->
<g id="node6" class="node">
<title>ToggleComponent</title>
<polygon fill="#ffffb3" stroke="#000000" points="2098.4902,-122 1977.5098,-122 1977.5098,-86 2098.4902,-86 2098.4902,-122"/>
<text text-anchor="middle" x="2038" y="-99.8" font-family="Times,serif" font-size="14.00" fill="#000000">ToggleComponent</text>
</g>
<!-- ToggleComponent&#45;&gt;AppModule -->
<g id="edge6" class="edge">
<title>ToggleComponent&#45;&gt;AppModule</title>
<path fill="none" stroke="#000000" d="M2038,-122.2667C2038,-140.5552 2038,-166 2038,-166 2038,-166 1468.7098,-166 1468.7098,-166"/>
<polygon fill="#000000" stroke="#000000" points="1468.7099,-162.5001 1458.7098,-166 1468.7098,-169.5001 1468.7099,-162.5001"/>
</g>
<!-- RegistrationComponent -->
<g id="node7" class="node">
<title>RegistrationComponent</title>
<polygon fill="#ffffb3" stroke="#000000" points="1959.766,-122 1810.234,-122 1810.234,-86 1959.766,-86 1959.766,-122"/>
<text text-anchor="middle" x="1885" y="-99.8" font-family="Times,serif" font-size="14.00" fill="#000000">RegistrationComponent</text>
</g>
<!-- RegistrationComponent&#45;&gt;AppModule -->
<g id="edge7" class="edge">
<title>RegistrationComponent&#45;&gt;AppModule</title>
<path fill="none" stroke="#000000" d="M1885,-122.0336C1885,-139.0597 1885,-162 1885,-162 1885,-162 1468.9437,-162 1468.9437,-162"/>
<polygon fill="#000000" stroke="#000000" points="1468.9438,-158.5001 1458.9437,-162 1468.9437,-165.5001 1468.9438,-158.5001"/>
</g>
<!-- AppComponent  -->
<g id="node17" class="node">
<title>AppComponent </title>
<polygon fill="#80b1d3" stroke="#000000" points="1471.439,-252 1362.561,-252 1362.561,-216 1471.439,-216 1471.439,-252"/>
<text text-anchor="middle" x="1417" y="-229.8" font-family="Times,serif" font-size="14.00" fill="#000000">AppComponent </text>
</g>
<!-- AppModule&#45;&gt;AppComponent  -->
<g id="edge16" class="edge">
<title>AppModule&#45;&gt;AppComponent </title>
<path fill="none" stroke="#000000" stroke-dasharray="1,5" d="M1417,-187.1061C1417,-187.1061 1417,-205.991 1417,-205.991"/>
<polygon fill="#000000" stroke="#000000" points="1413.5001,-205.9909 1417,-215.991 1420.5001,-205.991 1413.5001,-205.9909"/>
</g>
<!-- BrowserModule -->
<g id="node9" class="node">
<title>BrowserModule</title>
<polygon fill="#8dd3c7" stroke="#000000" points="1786.4734,-122 1783.4734,-126 1762.4734,-126 1759.4734,-122 1679.5266,-122 1679.5266,-86 1786.4734,-86 1786.4734,-122"/>
<text text-anchor="middle" x="1733" y="-99.8" font-family="Times,serif" font-size="14.00" fill="#000000">BrowserModule</text>
</g>
<!-- BrowserModule&#45;&gt;AppModule -->
<g id="edge8" class="edge">
<title>BrowserModule&#45;&gt;AppModule</title>
<path fill="none" stroke="#000000" d="M1733,-122.0091C1733,-138.0494 1733,-159 1733,-159 1733,-159 1468.9624,-159 1468.9624,-159"/>
<polygon fill="#000000" stroke="#000000" points="1468.9624,-155.5001 1458.9624,-159 1468.9623,-162.5001 1468.9624,-155.5001"/>
</g>
<!-- BrowserAnimationsModule -->
<g id="node10" class="node">
<title>BrowserAnimationsModule</title>
<polygon fill="#8dd3c7" stroke="#000000" points="1661.3019,-122 1658.3019,-126 1637.3019,-126 1634.3019,-122 1488.6981,-122 1488.6981,-86 1661.3019,-86 1661.3019,-122"/>
<text text-anchor="middle" x="1575" y="-99.8" font-family="Times,serif" font-size="14.00" fill="#000000">BrowserAnimationsModule</text>
</g>
<!-- BrowserAnimationsModule&#45;&gt;AppModule -->
<g id="edge9" class="edge">
<title>BrowserAnimationsModule&#45;&gt;AppModule</title>
<path fill="none" stroke="#000000" d="M1575,-122.1243C1575,-136.7832 1575,-155 1575,-155 1575,-155 1468.9263,-155 1468.9263,-155"/>
<polygon fill="#000000" stroke="#000000" points="1468.9263,-151.5001 1458.9263,-155 1468.9262,-158.5001 1468.9263,-151.5001"/>
</g>
<!-- MaterialModule -->
<g id="node11" class="node">
<title>MaterialModule</title>
<polygon fill="#8dd3c7" stroke="#000000" points="1470.4706,-122 1467.4706,-126 1446.4706,-126 1443.4706,-122 1363.5294,-122 1363.5294,-86 1470.4706,-86 1470.4706,-122"/>
<text text-anchor="middle" x="1417" y="-99.8" font-family="Times,serif" font-size="14.00" fill="#000000">MaterialModule</text>
</g>
<!-- MaterialModule&#45;&gt;AppModule -->
<g id="edge10" class="edge">
<title>MaterialModule&#45;&gt;AppModule</title>
<path fill="none" stroke="#000000" d="M1417,-122.1061C1417,-122.1061 1417,-140.991 1417,-140.991"/>
<polygon fill="#000000" stroke="#000000" points="1413.5001,-140.9909 1417,-150.991 1420.5001,-140.991 1413.5001,-140.9909"/>
</g>
<!-- FormsModule -->
<g id="node12" class="node">
<title>FormsModule</title>
<polygon fill="#8dd3c7" stroke="#000000" points="1345.8288,-122 1342.8288,-126 1321.8288,-126 1318.8288,-122 1250.1712,-122 1250.1712,-86 1345.8288,-86 1345.8288,-122"/>
<text text-anchor="middle" x="1298" y="-99.8" font-family="Times,serif" font-size="14.00" fill="#000000">FormsModule</text>
</g>
<!-- FormsModule&#45;&gt;AppModule -->
<g id="edge11" class="edge">
<title>FormsModule&#45;&gt;AppModule</title>
<path fill="none" stroke="#000000" d="M1298,-122.1243C1298,-136.7832 1298,-155 1298,-155 1298,-155 1365.0451,-155 1365.0451,-155"/>
<polygon fill="#000000" stroke="#000000" points="1365.0451,-158.5001 1375.0451,-155 1365.045,-151.5001 1365.0451,-158.5001"/>
</g>
<!-- ReactiveFormsModule -->
<g id="node13" class="node">
<title>ReactiveFormsModule</title>
<polygon fill="#8dd3c7" stroke="#000000" points="1232.3047,-122 1229.3047,-126 1208.3047,-126 1205.3047,-122 1087.6953,-122 1087.6953,-86 1232.3047,-86 1232.3047,-122"/>
<text text-anchor="middle" x="1160" y="-99.8" font-family="Times,serif" font-size="14.00" fill="#000000">ReactiveFormsModule</text>
</g>
<!-- ReactiveFormsModule&#45;&gt;AppModule -->
<g id="edge12" class="edge">
<title>ReactiveFormsModule&#45;&gt;AppModule</title>
<path fill="none" stroke="#000000" d="M1160,-122.0091C1160,-138.0494 1160,-159 1160,-159 1160,-159 1365.1365,-159 1365.1365,-159"/>
<polygon fill="#000000" stroke="#000000" points="1365.1366,-162.5001 1375.1365,-159 1365.1365,-155.5001 1365.1366,-162.5001"/>
</g>
<!-- AppRoutingModule -->
<g id="node14" class="node">
<title>AppRoutingModule</title>
<polygon fill="#8dd3c7" stroke="#000000" points="1069.2744,-122 1066.2744,-126 1045.2744,-126 1042.2744,-122 940.7256,-122 940.7256,-86 1069.2744,-86 1069.2744,-122"/>
<text text-anchor="middle" x="1005" y="-99.8" font-family="Times,serif" font-size="14.00" fill="#000000">AppRoutingModule</text>
</g>
<!-- AppRoutingModule&#45;&gt;AppModule -->
<g id="edge13" class="edge">
<title>AppRoutingModule&#45;&gt;AppModule</title>
<path fill="none" stroke="#000000" d="M1005,-122.0336C1005,-139.0597 1005,-162 1005,-162 1005,-162 1365.2279,-162 1365.2279,-162"/>
<polygon fill="#000000" stroke="#000000" points="1365.228,-165.5001 1375.2279,-162 1365.2279,-158.5001 1365.228,-165.5001"/>
</g>
<!-- MatSliderModule -->
<g id="node15" class="node">
<title>MatSliderModule</title>
<polygon fill="#8dd3c7" stroke="#000000" points="922.5395,-122 919.5395,-126 898.5395,-126 895.5395,-122 807.4605,-122 807.4605,-86 922.5395,-86 922.5395,-122"/>
<text text-anchor="middle" x="865" y="-99.8" font-family="Times,serif" font-size="14.00" fill="#000000">MatSliderModule</text>
</g>
<!-- MatSliderModule&#45;&gt;AppModule -->
<g id="edge14" class="edge">
<title>MatSliderModule&#45;&gt;AppModule</title>
<path fill="none" stroke="#000000" d="M865,-122.2667C865,-140.5552 865,-166 865,-166 865,-166 1365.0572,-166 1365.0572,-166"/>
<polygon fill="#000000" stroke="#000000" points="1365.0572,-169.5001 1375.0572,-166 1365.0572,-162.5001 1365.0572,-169.5001"/>
</g>
<!-- HttpClientModule -->
<g id="node16" class="node">
<title>HttpClientModule</title>
<polygon fill="#8dd3c7" stroke="#000000" points="789.1611,-122 786.1611,-126 765.1611,-126 762.1611,-122 670.8389,-122 670.8389,-86 789.1611,-86 789.1611,-122"/>
<text text-anchor="middle" x="730" y="-99.8" font-family="Times,serif" font-size="14.00" fill="#000000">HttpClientModule</text>
</g>
<!-- HttpClientModule&#45;&gt;AppModule -->
<g id="edge15" class="edge">
<title>HttpClientModule&#45;&gt;AppModule</title>
<path fill="none" stroke="#000000" d="M730,-122.1061C730,-141.3391 730,-169 730,-169 730,-169 1365.3161,-169 1365.3161,-169"/>
<polygon fill="#000000" stroke="#000000" points="1365.3161,-172.5001 1375.3161,-169 1365.316,-165.5001 1365.3161,-172.5001"/>
</g>
<!-- LoginService -->
<g id="node18" class="node">
<title>LoginService</title>
<ellipse fill="#fdb462" stroke="#000000" cx="584" cy="-104" rx="63.1209" ry="18"/>
<text text-anchor="middle" x="584" y="-99.8" font-family="Times,serif" font-size="14.00" fill="#000000">LoginService</text>
</g>
<!-- LoginService&#45;&gt;AppModule -->
<g id="edge17" class="edge">
<title>LoginService&#45;&gt;AppModule</title>
<path fill="none" stroke="#000000" d="M584,-122.1289C584,-142.5724 584,-173 584,-173 584,-173 1365.1205,-173 1365.1205,-173"/>
<polygon fill="#000000" stroke="#000000" points="1365.1206,-176.5001 1375.1205,-173 1365.1205,-169.5001 1365.1206,-176.5001"/>
</g>
<!-- QuestionsService -->
<g id="node19" class="node">
<title>QuestionsService</title>
<ellipse fill="#fdb462" stroke="#000000" cx="424" cy="-104" rx="78.7279" ry="18"/>
<text text-anchor="middle" x="424" y="-99.8" font-family="Times,serif" font-size="14.00" fill="#000000">QuestionsService</text>
</g>
<!-- QuestionsService&#45;&gt;AppModule -->
<g id="edge18" class="edge">
<title>QuestionsService&#45;&gt;AppModule</title>
<path fill="none" stroke="#000000" d="M424,-122.0449C424,-143.6623 424,-177 424,-177 424,-177 1365.2818,-177 1365.2818,-177"/>
<polygon fill="#000000" stroke="#000000" points="1365.2818,-180.5001 1375.2818,-177 1365.2818,-173.5001 1365.2818,-180.5001"/>
</g>
<!-- PreviewService -->
<g id="node20" class="node">
<title>PreviewService</title>
<ellipse fill="#fdb462" stroke="#000000" cx="256" cy="-104" rx="71.7641" ry="18"/>
<text text-anchor="middle" x="256" y="-99.8" font-family="Times,serif" font-size="14.00" fill="#000000">PreviewService</text>
</g>
<!-- PreviewService&#45;&gt;AppModule -->
<g id="edge19" class="edge">
<title>PreviewService&#45;&gt;AppModule</title>
<path fill="none" stroke="#000000" d="M256,-122.0109C256,-144.4852 256,-180 256,-180 256,-180 1365.3371,-180 1365.3371,-180"/>
<polygon fill="#000000" stroke="#000000" points="1365.3371,-183.5001 1375.3371,-180 1365.3371,-176.5001 1365.3371,-183.5001"/>
</g>
<!-- SettingsService -->
<g id="node21" class="node">
<title>SettingsService</title>
<ellipse fill="#fdb462" stroke="#000000" cx="95" cy="-104" rx="71.221" ry="18"/>
<text text-anchor="middle" x="95" y="-99.8" font-family="Times,serif" font-size="14.00" fill="#000000">SettingsService</text>
</g>
<!-- SettingsService&#45;&gt;AppModule -->
<g id="edge20" class="edge">
<title>SettingsService&#45;&gt;AppModule</title>
<path fill="none" stroke="#000000" d="M95,-122.1532C95,-145.7566 95,-184 95,-184 95,-184 1365.2517,-184 1365.2517,-184"/>
<polygon fill="#000000" stroke="#000000" points="1365.2518,-187.5001 1375.2517,-184 1365.2517,-180.5001 1365.2518,-187.5001"/>
</g>
</g>
</svg>
