<?xml version="1.0" encoding="UTF-8" standalone="no"?>
<!DOCTYPE svg PUBLIC "-//W3C//DTD SVG 1.1//EN"
 "http://www.w3.org/Graphics/SVG/1.1/DTD/svg11.dtd">
<!-- Generated by graphviz version 2.44.1 (20200629.0846)
 -->
<!-- Title: dependencies Pages: 1 -->
<svg width="4017pt" height="290pt"
 viewBox="0.00 0.00 4017.00 290.00" xmlns="http://www.w3.org/2000/svg" xmlns:xlink="http://www.w3.org/1999/xlink">
<g id="graph0" class="graph" transform="scale(1 1) rotate(0) translate(4 286)">
<title>dependencies</title>
<polygon fill="white" stroke="transparent" points="-4,4 -4,-286 4013,-286 4013,4 -4,4"/>
<text text-anchor="start" x="1983.51" y="-42.4" font-family="sans-serif" font-weight="bold" font-size="14.00">Legend</text>
<polygon fill="#ffffb3" stroke="transparent" points="1770.5,-10 1770.5,-30 1790.5,-30 1790.5,-10 1770.5,-10"/>
<text text-anchor="start" x="1794.13" y="-15.4" font-family="sans-serif" font-size="14.00"> &#160;Declarations</text>
<polygon fill="#8dd3c7" stroke="transparent" points="1883.5,-10 1883.5,-30 1903.5,-30 1903.5,-10 1883.5,-10"/>
<text text-anchor="start" x="1907.23" y="-15.4" font-family="sans-serif" font-size="14.00"> &#160;Module</text>
<polygon fill="#80b1d3" stroke="transparent" points="1969.5,-10 1969.5,-30 1989.5,-30 1989.5,-10 1969.5,-10"/>
<text text-anchor="start" x="1993.28" y="-15.4" font-family="sans-serif" font-size="14.00"> &#160;Bootstrap</text>
<polygon fill="#fdb462" stroke="transparent" points="2066.5,-10 2066.5,-30 2086.5,-30 2086.5,-10 2066.5,-10"/>
<text text-anchor="start" x="2090.17" y="-15.4" font-family="sans-serif" font-size="14.00"> &#160;Providers</text>
<polygon fill="#fb8072" stroke="transparent" points="2162.5,-10 2162.5,-30 2182.5,-30 2182.5,-10 2162.5,-10"/>
<text text-anchor="start" x="2186.23" y="-15.4" font-family="sans-serif" font-size="14.00"> &#160;Exports</text>
<g id="clust1" class="cluster">
<title>cluster_AppModule</title>
<polygon fill="none" stroke="black" stroke-dasharray="1,5" points="8,-70 8,-274 2088,-274 2088,-70 8,-70"/>
</g>
<g id="clust2" class="cluster">
<title>cluster_AppModule_declarations</title>
<polygon fill="none" stroke="black" points="503,-78 503,-130 1211,-130 1211,-78 503,-78"/>
</g>
<g id="clust8" class="cluster">
<title>cluster_AppModule_imports</title>
<polygon fill="none" stroke="black" points="1219,-78 1219,-130 2080,-130 2080,-78 1219,-78"/>
</g>
<g id="clust10" class="cluster">
<title>cluster_AppModule_bootstrap</title>
<polygon fill="none" stroke="black" points="1024,-214 1024,-266 1148,-266 1148,-214 1024,-214"/>
</g>
<g id="clust11" class="cluster">
<title>cluster_AppModule_providers</title>
<polygon fill="none" stroke="black" points="16,-78 16,-130 495,-130 495,-78 16,-78"/>
</g>
<g id="clust12" class="cluster">
<title>cluster_MaterialModule</title>
<polygon fill="none" stroke="black" stroke-dasharray="1,5" points="2096,-138 2096,-206 4001,-206 4001,-138 2096,-138"/>
</g>
<g id="clust15" class="cluster">
<title>cluster_MaterialModule_exports</title>
<polygon fill="none" stroke="black" points="2104,-146 2104,-198 3993,-198 3993,-146 2104,-146"/>
</g>
<!-- AppComponent -->
<g id="node1" class="node">
<title>AppComponent</title>
<polygon fill="#ffffb3" stroke="black" points="1202.94,-122 1097.06,-122 1097.06,-86 1202.94,-86 1202.94,-122"/>
<text text-anchor="middle" x="1150" y="-99.8" font-family="Times,serif" font-size="14.00">AppComponent</text>
</g>
<!-- AppModule -->
<g id="node6" class="node">
<title>AppModule</title>
<polygon fill="#8dd3c7" stroke="black" points="1127.66,-190 1124.66,-194 1103.66,-194 1100.66,-190 1044.34,-190 1044.34,-154 1127.66,-154 1127.66,-190"/>
<text text-anchor="middle" x="1086" y="-167.8" font-family="Times,serif" font-size="14.00">AppModule</text>
</g>
<!-- AppComponent&#45;&gt;AppModule -->
<g id="edge1" class="edge">
<title>AppComponent&#45;&gt;AppModule</title>
<path fill="none" stroke="black" d="M1112.55,-122.22C1112.55,-122.22 1112.55,-143.73 1112.55,-143.73"/>
<polygon fill="black" stroke="black" points="1109.05,-143.73 1112.55,-153.73 1116.05,-143.73 1109.05,-143.73"/>
</g>
<!-- LoginComponent -->
<g id="node2" class="node">
<title>LoginComponent</title>
<polygon fill="#ffffb3" stroke="black" points="1079.28,-122 964.72,-122 964.72,-86 1079.28,-86 1079.28,-122"/>
<text text-anchor="middle" x="1022" y="-99.8" font-family="Times,serif" font-size="14.00">LoginComponent</text>
</g>
<!-- LoginComponent&#45;&gt;AppModule -->
<g id="edge2" class="edge">
<title>LoginComponent&#45;&gt;AppModule</title>
<path fill="none" stroke="black" d="M1061.78,-122.22C1061.78,-122.22 1061.78,-143.73 1061.78,-143.73"/>
<polygon fill="black" stroke="black" points="1058.28,-143.73 1061.78,-153.73 1065.28,-143.73 1058.28,-143.73"/>
</g>
<!-- ControlPanelComponent -->
<g id="node3" class="node">
<title>ControlPanelComponent</title>
<polygon fill="#ffffb3" stroke="black" points="946.71,-122 791.29,-122 791.29,-86 946.71,-86 946.71,-122"/>
<text text-anchor="middle" x="869" y="-99.8" font-family="Times,serif" font-size="14.00">ControlPanelComponent</text>
</g>
<!-- ControlPanelComponent&#45;&gt;AppModule -->
<g id="edge3" class="edge">
<title>ControlPanelComponent&#45;&gt;AppModule</title>
<path fill="none" stroke="black" d="M869,-122.03C869,-138.4 869,-160 869,-160 869,-160 1034.16,-160 1034.16,-160"/>
<polygon fill="black" stroke="black" points="1034.16,-163.5 1044.16,-160 1034.16,-156.5 1034.16,-163.5"/>
</g>
<!-- AboutComponent -->
<g id="node4" class="node">
<title>AboutComponent</title>
<polygon fill="#ffffb3" stroke="black" points="773.33,-122 656.67,-122 656.67,-86 773.33,-86 773.33,-122"/>
<text text-anchor="middle" x="715" y="-99.8" font-family="Times,serif" font-size="14.00">AboutComponent</text>
</g>
<!-- AboutComponent&#45;&gt;AppModule -->
<g id="edge4" class="edge">
<title>AboutComponent&#45;&gt;AppModule</title>
<path fill="none" stroke="black" d="M715,-122.3C715,-140.27 715,-165 715,-165 715,-165 1034.16,-165 1034.16,-165"/>
<polygon fill="black" stroke="black" points="1034.16,-168.5 1044.16,-165 1034.16,-161.5 1034.16,-168.5"/>
</g>
<!-- PreviewComponent -->
<g id="node5" class="node">
<title>PreviewComponent</title>
<polygon fill="#ffffb3" stroke="black" points="638.7,-122 511.3,-122 511.3,-86 638.7,-86 638.7,-122"/>
<text text-anchor="middle" x="575" y="-99.8" font-family="Times,serif" font-size="14.00">PreviewComponent</text>
</g>
<!-- PreviewComponent&#45;&gt;AppModule -->
<g id="edge5" class="edge">
<title>PreviewComponent&#45;&gt;AppModule</title>
<path fill="none" stroke="black" d="M575,-122.03C575,-141.58 575,-170 575,-170 575,-170 1034.18,-170 1034.18,-170"/>
<polygon fill="black" stroke="black" points="1034.18,-173.5 1044.18,-170 1034.18,-166.5 1034.18,-173.5"/>
</g>
<!-- AppComponent  -->
<g id="node13" class="node">
<title>AppComponent </title>
<polygon fill="#80b1d3" stroke="black" points="1140.44,-258 1031.56,-258 1031.56,-222 1140.44,-222 1140.44,-258"/>
<text text-anchor="middle" x="1086" y="-235.8" font-family="Times,serif" font-size="14.00">AppComponent </text>
</g>
<!-- AppModule&#45;&gt;AppComponent  -->
<g id="edge12" class="edge">
<title>AppModule&#45;&gt;AppComponent </title>
<path fill="none" stroke="black" stroke-dasharray="1,5" d="M1086,-190.22C1086,-190.22 1086,-211.73 1086,-211.73"/>
<polygon fill="black" stroke="black" points="1082.5,-211.73 1086,-221.73 1089.5,-211.73 1082.5,-211.73"/>
</g>
<!-- BrowserModule -->
<g id="node7" class="node">
<title>BrowserModule</title>
<polygon fill="#8dd3c7" stroke="black" points="1947.47,-122 1944.47,-126 1923.47,-126 1920.47,-122 1840.53,-122 1840.53,-86 1947.47,-86 1947.47,-122"/>
<text text-anchor="middle" x="1894" y="-99.8" font-family="Times,serif" font-size="14.00">BrowserModule</text>
</g>
<!-- BrowserModule&#45;&gt;AppModule -->
<g id="edge6" class="edge">
<title>BrowserModule&#45;&gt;AppModule</title>
<path fill="none" stroke="black" d="M1894,-122.04C1894,-143.66 1894,-177 1894,-177 1894,-177 1137.74,-177 1137.74,-177"/>
<polygon fill="black" stroke="black" points="1137.74,-173.5 1127.74,-177 1137.74,-180.5 1137.74,-173.5"/>
</g>
<!-- BrowserAnimationsModule -->
<g id="node8" class="node">
<title>BrowserAnimationsModule</title>
<polygon fill="#8dd3c7" stroke="black" points="1822.3,-122 1819.3,-126 1798.3,-126 1795.3,-122 1649.7,-122 1649.7,-86 1822.3,-86 1822.3,-122"/>
<text text-anchor="middle" x="1736" y="-99.8" font-family="Times,serif" font-size="14.00">BrowserAnimationsModule</text>
</g>
<!-- BrowserAnimationsModule&#45;&gt;AppModule -->
<g id="edge7" class="edge">
<title>BrowserAnimationsModule&#45;&gt;AppModule</title>
<path fill="none" stroke="black" d="M1736,-122.22C1736,-142.37 1736,-172 1736,-172 1736,-172 1138.15,-172 1138.15,-172"/>
<polygon fill="black" stroke="black" points="1138.15,-168.5 1128.15,-172 1138.15,-175.5 1138.15,-168.5"/>
</g>
<!-- MaterialModule -->
<g id="node9" class="node">
<title>MaterialModule</title>
<polygon fill="#8dd3c7" stroke="black" points="2072.47,-122 2069.47,-126 2048.47,-126 2045.47,-122 1965.53,-122 1965.53,-86 2072.47,-86 2072.47,-122"/>
<text text-anchor="middle" x="2019" y="-99.8" font-family="Times,serif" font-size="14.00">MaterialModule</text>
</g>
<!-- MaterialModule&#45;&gt;AppModule -->
<g id="edge8" class="edge">
<title>MaterialModule&#45;&gt;AppModule</title>
<path fill="none" stroke="black" d="M2001.17,-122.25C2001.17,-145.02 2001.17,-181 2001.17,-181 2001.17,-181 1137.7,-181 1137.7,-181"/>
<polygon fill="black" stroke="black" points="1137.7,-177.5 1127.7,-181 1137.7,-184.5 1137.7,-177.5"/>
</g>
<!-- MatButtonModule  -->
<g id="node17" class="node">
<title>MatButtonModule </title>
<polygon fill="#fb8072" stroke="black" points="3984.72,-190 3861.28,-190 3861.28,-154 3984.72,-154 3984.72,-190"/>
<text text-anchor="middle" x="3923" y="-167.8" font-family="Times,serif" font-size="14.00">MatButtonModule </text>
</g>
<!-- MaterialModule&#45;&gt;MatButtonModule  -->
<g id="edge16" class="edge">
<title>MaterialModule&#45;&gt;MatButtonModule </title>
<path fill="none" stroke="black" stroke-dasharray="5,2" d="M2072.66,-89C2381.93,-89 3923,-89 3923,-89 3923,-89 3923,-143.99 3923,-143.99"/>
<polygon fill="black" stroke="black" points="3919.5,-143.99 3923,-153.99 3926.5,-143.99 3919.5,-143.99"/>
</g>
<!-- MatTabsModule  -->
<g id="node18" class="node">
<title>MatTabsModule </title>
<polygon fill="#fb8072" stroke="black" points="3843.31,-190 3730.69,-190 3730.69,-154 3843.31,-154 3843.31,-190"/>
<text text-anchor="middle" x="3787" y="-167.8" font-family="Times,serif" font-size="14.00">MatTabsModule </text>
</g>
<!-- MaterialModule&#45;&gt;MatTabsModule  -->
<g id="edge17" class="edge">
<title>MaterialModule&#45;&gt;MatTabsModule </title>
<path fill="none" stroke="black" stroke-dasharray="5,2" d="M2072.88,-92C2369.18,-92 3787,-92 3787,-92 3787,-92 3787,-143.85 3787,-143.85"/>
<polygon fill="black" stroke="black" points="3783.5,-143.85 3787,-153.85 3790.5,-143.85 3783.5,-143.85"/>
</g>
<!-- MatCardModule  -->
<g id="node19" class="node">
<title>MatCardModule </title>
<polygon fill="#fb8072" stroke="black" points="3712.31,-190 3599.69,-190 3599.69,-154 3712.31,-154 3712.31,-190"/>
<text text-anchor="middle" x="3656" y="-167.8" font-family="Times,serif" font-size="14.00">MatCardModule </text>
</g>
<!-- MaterialModule&#45;&gt;MatCardModule  -->
<g id="edge18" class="edge">
<title>MaterialModule&#45;&gt;MatCardModule </title>
<path fill="none" stroke="black" stroke-dasharray="5,2" d="M2072.54,-95C2354.66,-95 3656,-95 3656,-95 3656,-95 3656,-143.75 3656,-143.75"/>
<polygon fill="black" stroke="black" points="3652.5,-143.75 3656,-153.75 3659.5,-143.75 3652.5,-143.75"/>
</g>
<!-- MatToolbarModule  -->
<g id="node20" class="node">
<title>MatToolbarModule </title>
<polygon fill="#fb8072" stroke="black" points="3581.92,-190 3452.08,-190 3452.08,-154 3581.92,-154 3581.92,-190"/>
<text text-anchor="middle" x="3517" y="-167.8" font-family="Times,serif" font-size="14.00">MatToolbarModule </text>
</g>
<!-- MaterialModule&#45;&gt;MatToolbarModule  -->
<g id="edge19" class="edge">
<title>MaterialModule&#45;&gt;MatToolbarModule </title>
<path fill="none" stroke="black" stroke-dasharray="5,2" d="M2072.76,-98C2340.46,-98 3517,-98 3517,-98 3517,-98 3517,-143.71 3517,-143.71"/>
<polygon fill="black" stroke="black" points="3513.5,-143.71 3517,-153.71 3520.5,-143.71 3513.5,-143.71"/>
</g>
<!-- MatIconModule  -->
<g id="node21" class="node">
<title>MatIconModule </title>
<polygon fill="#fb8072" stroke="black" points="3434.48,-190 3323.52,-190 3323.52,-154 3434.48,-154 3434.48,-190"/>
<text text-anchor="middle" x="3379" y="-167.8" font-family="Times,serif" font-size="14.00">MatIconModule </text>
</g>
<!-- MaterialModule&#45;&gt;MatIconModule  -->
<g id="edge20" class="edge">
<title>MaterialModule&#45;&gt;MatIconModule </title>
<path fill="none" stroke="black" stroke-dasharray="5,2" d="M2072.73,-100C2324.93,-100 3379,-100 3379,-100 3379,-100 3379,-143.83 3379,-143.83"/>
<polygon fill="black" stroke="black" points="3375.5,-143.83 3379,-153.83 3382.5,-143.83 3375.5,-143.83"/>
</g>
<!-- MatGridListModule  -->
<g id="node22" class="node">
<title>MatGridListModule </title>
<polygon fill="#fb8072" stroke="black" points="3305.54,-190 3172.46,-190 3172.46,-154 3305.54,-154 3305.54,-190"/>
<text text-anchor="middle" x="3239" y="-167.8" font-family="Times,serif" font-size="14.00">MatGridListModule </text>
</g>
<!-- MaterialModule&#45;&gt;MatGridListModule  -->
<g id="edge21" class="edge">
<title>MaterialModule&#45;&gt;MatGridListModule </title>
<path fill="none" stroke="black" stroke-dasharray="5,2" d="M2072.6,-103C2308.06,-103 3239,-103 3239,-103 3239,-103 3239,-143.87 3239,-143.87"/>
<polygon fill="black" stroke="black" points="3235.5,-143.87 3239,-153.87 3242.5,-143.87 3235.5,-143.87"/>
</g>
<!-- MatSlideToggleModule  -->
<g id="node23" class="node">
<title>MatSlideToggleModule </title>
<polygon fill="#fb8072" stroke="black" points="3154.04,-190 2999.96,-190 2999.96,-154 3154.04,-154 3154.04,-190"/>
<text text-anchor="middle" x="3077" y="-167.8" font-family="Times,serif" font-size="14.00">MatSlideToggleModule </text>
</g>
<!-- MaterialModule&#45;&gt;MatSlideToggleModule  -->
<g id="edge22" class="edge">
<title>MaterialModule&#45;&gt;MatSlideToggleModule </title>
<path fill="none" stroke="black" stroke-dasharray="5,2" d="M2072.56,-106C2287.63,-106 3077,-106 3077,-106 3077,-106 3077,-143.97 3077,-143.97"/>
<polygon fill="black" stroke="black" points="3073.5,-143.97 3077,-153.97 3080.5,-143.97 3073.5,-143.97"/>
</g>
<!-- MatSliderModule  -->
<g id="node24" class="node">
<title>MatSliderModule </title>
<polygon fill="#fb8072" stroke="black" points="2981.54,-190 2862.46,-190 2862.46,-154 2981.54,-154 2981.54,-190"/>
<text text-anchor="middle" x="2922" y="-167.8" font-family="Times,serif" font-size="14.00">MatSliderModule </text>
</g>
<!-- MaterialModule&#45;&gt;MatSliderModule  -->
<g id="edge23" class="edge">
<title>MaterialModule&#45;&gt;MatSliderModule </title>
<path fill="none" stroke="black" stroke-dasharray="5,2" d="M2072.78,-109C2267.18,-109 2922,-109 2922,-109 2922,-109 2922,-143.78 2922,-143.78"/>
<polygon fill="black" stroke="black" points="2918.5,-143.78 2922,-153.78 2925.5,-143.78 2918.5,-143.78"/>
</g>
<!-- MatDividerModule  -->
<g id="node25" class="node">
<title>MatDividerModule </title>
<polygon fill="#fb8072" stroke="black" points="2844.36,-190 2715.64,-190 2715.64,-154 2844.36,-154 2844.36,-190"/>
<text text-anchor="middle" x="2780" y="-167.8" font-family="Times,serif" font-size="14.00">MatDividerModule </text>
</g>
<!-- MaterialModule&#45;&gt;MatDividerModule  -->
<g id="edge24" class="edge">
<title>MaterialModule&#45;&gt;MatDividerModule </title>
<path fill="none" stroke="black" stroke-dasharray="5,2" d="M2072.51,-111C2245.73,-111 2780,-111 2780,-111 2780,-111 2780,-143.7 2780,-143.7"/>
<polygon fill="black" stroke="black" points="2776.5,-143.7 2780,-153.7 2783.5,-143.7 2776.5,-143.7"/>
</g>
<!-- FlexLayoutModule  -->
<g id="node26" class="node">
<title>FlexLayoutModule </title>
<polygon fill="#fb8072" stroke="black" points="2697.6,-190 2570.4,-190 2570.4,-154 2697.6,-154 2697.6,-190"/>
<text text-anchor="middle" x="2634" y="-167.8" font-family="Times,serif" font-size="14.00">FlexLayoutModule </text>
</g>
<!-- MaterialModule&#45;&gt;FlexLayoutModule  -->
<g id="edge25" class="edge">
<title>MaterialModule&#45;&gt;FlexLayoutModule </title>
<path fill="none" stroke="black" stroke-dasharray="5,2" d="M2072.5,-114C2222.13,-114 2634,-114 2634,-114 2634,-114 2634,-143.97 2634,-143.97"/>
<polygon fill="black" stroke="black" points="2630.5,-143.97 2634,-153.97 2637.5,-143.97 2630.5,-143.97"/>
</g>
<!-- MatInputModule  -->
<g id="node27" class="node">
<title>MatInputModule </title>
<polygon fill="#fb8072" stroke="black" points="2552.65,-190 2437.35,-190 2437.35,-154 2552.65,-154 2552.65,-190"/>
<text text-anchor="middle" x="2495" y="-167.8" font-family="Times,serif" font-size="14.00">MatInputModule </text>
</g>
<!-- MaterialModule&#45;&gt;MatInputModule  -->
<g id="edge26" class="edge">
<title>MaterialModule&#45;&gt;MatInputModule </title>
<path fill="none" stroke="black" stroke-dasharray="5,2" d="M2072.68,-117C2197.16,-117 2495,-117 2495,-117 2495,-117 2495,-143.99 2495,-143.99"/>
<polygon fill="black" stroke="black" points="2491.5,-143.99 2495,-153.99 2498.5,-143.99 2491.5,-143.99"/>
</g>
<!-- MatFormFieldModule  -->
<g id="node28" class="node">
<title>MatFormFieldModule </title>
<polygon fill="#fb8072" stroke="black" points="2419.21,-190 2274.79,-190 2274.79,-154 2419.21,-154 2419.21,-190"/>
<text text-anchor="middle" x="2347" y="-167.8" font-family="Times,serif" font-size="14.00">MatFormFieldModule </text>
</g>
<!-- MaterialModule&#45;&gt;MatFormFieldModule  -->
<g id="edge27" class="edge">
<title>MaterialModule&#45;&gt;MatFormFieldModule </title>
<path fill="none" stroke="black" stroke-dasharray="5,2" d="M2072.8,-120C2165.85,-120 2347,-120 2347,-120 2347,-120 2347,-143.81 2347,-143.81"/>
<polygon fill="black" stroke="black" points="2343.5,-143.81 2347,-153.81 2350.5,-143.81 2343.5,-143.81"/>
</g>
<!-- MatExpansionModule  -->
<g id="node29" class="node">
<title>MatExpansionModule </title>
<polygon fill="#fb8072" stroke="black" points="2256.2,-190 2111.8,-190 2111.8,-154 2256.2,-154 2256.2,-190"/>
<text text-anchor="middle" x="2184" y="-167.8" font-family="Times,serif" font-size="14.00">MatExpansionModule </text>
</g>
<!-- MaterialModule&#45;&gt;MatExpansionModule  -->
<g id="edge28" class="edge">
<title>MaterialModule&#45;&gt;MatExpansionModule </title>
<path fill="none" stroke="black" stroke-dasharray="5,2" d="M2036.83,-122.2C2036.83,-146.36 2036.83,-186 2036.83,-186 2036.83,-186 2101.71,-186 2101.71,-186"/>
<polygon fill="black" stroke="black" points="2101.71,-189.5 2111.71,-186 2101.71,-182.5 2101.71,-189.5"/>
</g>
<!-- FormsModule -->
<g id="node10" class="node">
<title>FormsModule</title>
<polygon fill="#8dd3c7" stroke="black" points="1484.83,-122 1481.83,-126 1460.83,-126 1457.83,-122 1389.17,-122 1389.17,-86 1484.83,-86 1484.83,-122"/>
<text text-anchor="middle" x="1437" y="-99.8" font-family="Times,serif" font-size="14.00">FormsModule</text>
</g>
<!-- FormsModule&#45;&gt;AppModule -->
<g id="edge9" class="edge">
<title>FormsModule&#45;&gt;AppModule</title>
<path fill="none" stroke="black" d="M1437,-122.02C1437,-139.37 1437,-163 1437,-163 1437,-163 1137.99,-163 1137.99,-163"/>
<polygon fill="black" stroke="black" points="1137.99,-159.5 1127.99,-163 1137.99,-166.5 1137.99,-159.5"/>
</g>
<!-- ReactiveFormsModule -->
<g id="node11" class="node">
<title>ReactiveFormsModule</title>
<polygon fill="#8dd3c7" stroke="black" points="1371.3,-122 1368.3,-126 1347.3,-126 1344.3,-122 1226.7,-122 1226.7,-86 1371.3,-86 1371.3,-122"/>
<text text-anchor="middle" x="1299" y="-99.8" font-family="Times,serif" font-size="14.00">ReactiveFormsModule</text>
</g>
<!-- ReactiveFormsModule&#45;&gt;AppModule -->
<g id="edge10" class="edge">
<title>ReactiveFormsModule&#45;&gt;AppModule</title>
<path fill="none" stroke="black" d="M1299,-122.01C1299,-138.05 1299,-159 1299,-159 1299,-159 1137.83,-159 1137.83,-159"/>
<polygon fill="black" stroke="black" points="1137.83,-155.5 1127.83,-159 1137.83,-162.5 1137.83,-155.5"/>
</g>
<!-- AppRoutingModule -->
<g id="node12" class="node">
<title>AppRoutingModule</title>
<polygon fill="#8dd3c7" stroke="black" points="1631.27,-122 1628.27,-126 1607.27,-126 1604.27,-122 1502.73,-122 1502.73,-86 1631.27,-86 1631.27,-122"/>
<text text-anchor="middle" x="1567" y="-99.8" font-family="Times,serif" font-size="14.00">AppRoutingModule</text>
</g>
<!-- AppRoutingModule&#45;&gt;AppModule -->
<g id="edge11" class="edge">
<title>AppRoutingModule&#45;&gt;AppModule</title>
<path fill="none" stroke="black" d="M1567,-122.17C1567,-141.09 1567,-168 1567,-168 1567,-168 1137.84,-168 1137.84,-168"/>
<polygon fill="black" stroke="black" points="1137.84,-164.5 1127.84,-168 1137.84,-171.5 1137.84,-164.5"/>
</g>
<!-- LoginService -->
<g id="node14" class="node">
<title>LoginService</title>
<ellipse fill="#fdb462" stroke="black" cx="424" cy="-104" rx="63.12" ry="18"/>
<text text-anchor="middle" x="424" y="-99.8" font-family="Times,serif" font-size="14.00">LoginService</text>
</g>
<!-- LoginService&#45;&gt;AppModule -->
<g id="edge13" class="edge">
<title>LoginService&#45;&gt;AppModule</title>
<path fill="none" stroke="black" d="M424,-122.28C424,-143.32 424,-175 424,-175 424,-175 1034.34,-175 1034.34,-175"/>
<polygon fill="black" stroke="black" points="1034.34,-178.5 1044.34,-175 1034.34,-171.5 1034.34,-178.5"/>
</g>
<!-- QuestionsService -->
<g id="node15" class="node">
<title>QuestionsService</title>
<ellipse fill="#fdb462" stroke="black" cx="264" cy="-104" rx="78.73" ry="18"/>
<text text-anchor="middle" x="264" y="-99.8" font-family="Times,serif" font-size="14.00">QuestionsService</text>
</g>
<!-- QuestionsService&#45;&gt;AppModule -->
<g id="edge14" class="edge">
<title>QuestionsService&#45;&gt;AppModule</title>
<path fill="none" stroke="black" d="M264,-122.01C264,-144.49 264,-180 264,-180 264,-180 1034.11,-180 1034.11,-180"/>
<polygon fill="black" stroke="black" points="1034.11,-183.5 1044.11,-180 1034.11,-176.5 1034.11,-183.5"/>
</g>
<!-- PreviewService -->
<g id="node16" class="node">
<title>PreviewService</title>
<ellipse fill="#fdb462" stroke="black" cx="96" cy="-104" rx="71.76" ry="18"/>
<text text-anchor="middle" x="96" y="-99.8" font-family="Times,serif" font-size="14.00">PreviewService</text>
</g>
<!-- PreviewService&#45;&gt;AppModule -->
<g id="edge15" class="edge">
<title>PreviewService&#45;&gt;AppModule</title>
<path fill="none" stroke="black" d="M96,-122.38C96,-146.28 96,-185 96,-185 96,-185 1034.09,-185 1034.09,-185"/>
<polygon fill="black" stroke="black" points="1034.09,-188.5 1044.09,-185 1034.09,-181.5 1034.09,-188.5"/>
</g>
</g>
</svg>
